<svg xmlns="http://www.w3.org/2000/svg" id="Layer_1" data-name="Layer 1" viewBox="0 0 272.945 104.468"><defs><style>.cls-1{fill:#551e1e}.cls-2{fill:#414a51}.cls-3{fill:#ced6dd}.cls-4{fill:#3b9fc3}</style></defs><g id="Layer_1-2" data-name="Layer 1"><g><g><path d="M13.912 66.088c.412 0 .899-.013 1.462-.041a30.842 30.842 0 0 1 1.441-.041c.453 0 .909.069 1.369.206.46.137.906.343 1.338.618.432.275.786.666 1.06 1.174.275.508.412 1.099.412 1.771 0 .398-.086.827-.257 1.287-.172.46-.422.906-.752 1.338s-.772.79-1.328 1.071a4.073 4.073 0 0 1-1.864.422c-.769 0-1.297-.192-1.586-.577-.082-.096-.103-.254-.062-.474.013-.055.034-.075.062-.062.412.151.872.227 1.38.227.686 0 1.277-.288 1.771-.865s.741-1.263.741-2.059c0-.975-.213-1.747-.638-2.317-.426-.569-1.084-.855-1.977-.855-.618 0-1.099.048-1.441.144-.069.014-.117.065-.144.154-.028.09-.051.299-.072.628s-.031.824-.031 1.483v7.351c0 .92.055 1.517.165 1.791.069.178.312.323.731.432.419.11.717.165.896.165.055 0 .082.096.082.288a1 1 0 0 1-.041.309c-1.373-.069-2.265-.103-2.677-.103l-2.512.103c-.041-.041-.062-.165-.062-.371 0-.178.021-.268.062-.268.192 0 .46-.041.803-.124.343-.082.549-.185.618-.309.096-.165.144-.81.144-1.936v-7.784c0-.81-.048-1.4-.144-1.771-.041-.11-.244-.213-.607-.309-.364-.096-.635-.144-.813-.144-.055 0-.082-.082-.082-.247 0-.178.027-.295.082-.35l2.471.041ZM27.272 70.618c.755 0 1.297.182 1.627.546.329.364.494.951.494 1.761v4.757c0 .288.075.529.227.721a.741.741 0 0 0 .618.288c.192 0 .432-.096.721-.288.055 0 .082.055.082.165a.8.8 0 0 1-.103.432c-.563.481-1.043.721-1.441.721-.316 0-.618-.13-.906-.391-.288-.26-.487-.535-.597-.824-.014 0-.065.045-.154.134s-.209.193-.36.309a6.074 6.074 0 0 1-.525.36c-.199.124-.432.227-.7.309s-.539.124-.813.124c-.631 0-1.153-.168-1.565-.504-.412-.336-.618-.841-.618-1.513 0-.302.075-.587.227-.855.151-.268.329-.487.535-.659.206-.172.487-.347.844-.525.357-.178.662-.312.916-.402.254-.089.587-.202.999-.34.412-.137.7-.24.865-.309.124-.041.185-.144.185-.309v-1.544c0-.439-.137-.779-.412-1.019a1.451 1.451 0 0 0-.988-.36c-.412 0-.755.141-1.03.422s-.412.649-.412 1.102c0 .481-.281.721-.844.721-.384 0-.652-.13-.803-.391 0-.59.432-1.177 1.297-1.761.865-.583 1.743-.875 2.636-.875Zm-1.936 7.65c.233.199.535.299.906.299s.728-.113 1.071-.34c.343-.227.515-.456.515-.69v-2.121c-.11.055-.378.151-.803.288-.426.137-.759.257-.999.36-.24.103-.474.275-.7.515-.227.24-.34.518-.34.834 0 .371.116.656.35.855ZM40.817 72.574v4.118c0 .59.048 1.112.144 1.565.027.096.103.172.227.227.124.055.254.09.391.103.137.014.275.021.412.021l.185.021c.041.014.062.09.062.227a.672.672 0 0 1-.051.196c-.034.09-.072.134-.113.134a8.876 8.876 0 0 0-1.4.226c-.22.055-.426.11-.618.165a6.273 6.273 0 0 0-.453.144l-.185.041c-.11 0-.165-.11-.165-.329v-1.05l-.041-.103c-.906.975-1.805 1.462-2.697 1.462-.508 0-.944-.127-1.308-.381a2.238 2.238 0 0 1-.803-1.009 5.844 5.844 0 0 1-.36-1.215 7.046 7.046 0 0 1-.103-1.225v-2.595c0-.535-.096-.906-.288-1.112a1.053 1.053 0 0 0-.504-.34c-.199-.062-.364-.093-.494-.093s-.196-.013-.196-.041c0-.329.041-.501.124-.515 1.455-.219 2.402-.398 2.842-.535a.625.625 0 0 0 .103-.021c.055 0 .089.059.103.175a.823.823 0 0 1 0 .257c-.082.659-.124 1.167-.124 1.524v2.78c0 1.057.158 1.836.474 2.337.316.501.831.752 1.544.752.412 0 .803-.161 1.174-.484.371-.322.556-.6.556-.834v-3.851c0-.535-.096-.906-.288-1.112a1.053 1.053 0 0 0-.504-.34c-.199-.062-.364-.093-.494-.093s-.196-.013-.196-.041c0-.329.041-.501.124-.515 1.455-.219 2.402-.398 2.842-.535a.625.625 0 0 0 .103-.021c.055 0 .089.059.103.175a.823.823 0 0 1 0 .257c-.082.659-.124 1.153-.124 1.483ZM44.993 77.207v-8.916c0-.466-.041-.906-.124-1.318-.069-.219-.419-.329-1.05-.329h-.185c-.082 0-.124-.075-.124-.227 0-.219.041-.329.124-.329.412-.041.793-.096 1.143-.165s.625-.137.824-.206c.199-.069.367-.134.504-.196s.24-.113.309-.154l.082-.062h.041c.055 0 .11.038.165.113a.572.572 0 0 1 .103.216c-.151.44-.227 1.037-.227 1.791v9.39c0 .796.055 1.407.165 1.833.027.096.206.189.535.278.329.09.563.134.7.134.041 0 .069.082.082.247.013.165.007.281-.021.35a142.262 142.262 0 0 0-2.203-.103c-.082 0-.831.034-2.244.103-.055-.055-.082-.168-.082-.34s.027-.257.082-.257c.165 0 .408-.044.731-.134.322-.089.497-.182.525-.278.096-.398.144-.878.144-1.441ZM58.142 66.088c.275 0 .542-.007.803-.021.26-.013.542-.031.844-.051l.741-.051a1 1 0 0 1 .041.309c0 .193-.028.288-.082.288-.137 0-.384.048-.741.144-.357.096-.549.193-.577.288-.124.481-.185 1.119-.185 1.915v8.937c0 1.73-.484 3.233-1.452 4.51s-2.2 1.915-3.696 1.915c-.151 0-.316-.028-.494-.082a2.911 2.911 0 0 1-.432-.165l-.144-.082c-.165-.193-.247-.446-.247-.762a.89.89 0 0 1 .381-.741c.254-.193.553-.288.896-.288.247 0 .525.147.834.443.309.295.553.443.731.443.192 0 .388-.096.587-.288.199-.193.394-.474.587-.844.192-.371.35-.896.474-1.575s.185-1.452.185-2.317v-9.184c0-.851-.048-1.462-.144-1.833-.041-.11-.237-.209-.587-.299-.35-.089-.615-.134-.793-.134-.055 0-.082-.089-.082-.268 0-.165.027-.275.082-.329.178.014.542.038 1.091.072.549.034 1.009.051 1.38.051ZM63.378 79.524c-.24-.24-.36-.525-.36-.855s.12-.607.36-.834c.24-.227.525-.34.855-.34s.607.113.834.34.34.504.34.834-.113.615-.34.855-.504.36-.834.36-.615-.12-.855-.36ZM76.105 66.088c.275 0 .542-.007.803-.021.26-.013.542-.031.844-.051l.741-.051c.027.055.038.168.031.34-.007.172-.031.257-.072.257-.137 0-.384.048-.741.144-.357.096-.549.193-.577.288-.124.481-.185 1.119-.185 1.915v3.356l.144.124h.144c.439 0 .837-.199 1.194-.597 1.606-1.798 2.787-3.192 3.542-4.18.329-.398.494-.659.494-.782 0-.233-.391-.35-1.174-.35-.055 0-.082-.062-.082-.185s.013-.233.041-.329a80.602 80.602 0 0 0 1.503.102c.247.014.48.021.7.021.343 0 .734-.017 1.174-.051l.906-.072c.027.055.038.154.031.299-.007.144-.031.216-.072.216-.837.096-1.469.384-1.894.865l-4.139 4.818c-.11.124-.062.309.144.556l4.963 5.457c.219.234.508.426.865.577.357.151.635.24.834.268.199.028.36.041.484.041.069 0 .103.124.103.371a.523.523 0 0 1-.041.227c-1.373-.069-2.224-.103-2.553-.103-.343 0-.652.007-.927.021-.275.014-.584.027-.927.041a71.47 71.47 0 0 0-.927.041c-.055-.055-.082-.168-.082-.34s.027-.257.082-.257c.165 0 .353-.027.566-.082.213-.055.319-.137.319-.247 0-.439-1.558-2.258-4.674-5.457-.055-.055-.254-.082-.597-.082-.096 0-.144.055-.144.165v3.377c0 .796.062 1.435.185 1.915.027.096.219.189.577.278.357.09.604.134.741.134.041 0 .065.082.072.247.007.165-.003.281-.031.35a85.93 85.93 0 0 0-2.389-.103c-.069 0-.893.034-2.471.103-.055-.055-.082-.158-.082-.309 0-.192.027-.288.082-.288.178 0 .443-.041.793-.124s.546-.178.587-.288c.096-.371.144-.981.144-1.833v-7.989c0-.851-.048-1.462-.144-1.833-.041-.11-.237-.209-.587-.299-.35-.089-.615-.134-.793-.134-.055 0-.082-.089-.082-.268 0-.165.027-.275.082-.329.178.014.542.038 1.091.072.549.034 1.009.051 1.38.051ZM92.492 70.618c.755 0 1.297.182 1.627.546.329.364.494.951.494 1.761v4.757c0 .288.075.529.227.721a.741.741 0 0 0 .618.288c.192 0 .432-.096.721-.288.055 0 .082.055.082.165a.8.8 0 0 1-.103.432c-.563.481-1.043.721-1.441.721-.316 0-.618-.13-.906-.391-.288-.26-.487-.535-.597-.824-.014 0-.065.045-.154.134s-.209.193-.36.309a6.074 6.074 0 0 1-.525.36c-.199.124-.432.227-.7.309s-.539.124-.813.124c-.631 0-1.153-.168-1.565-.504-.412-.336-.618-.841-.618-1.513 0-.302.075-.587.227-.855.151-.268.329-.487.535-.659.206-.172.487-.347.844-.525.357-.178.662-.312.916-.402.254-.089.587-.202.999-.34.412-.137.7-.24.865-.309.124-.041.185-.144.185-.309v-1.544c0-.439-.137-.779-.412-1.019a1.451 1.451 0 0 0-.988-.36c-.412 0-.755.141-1.03.422s-.412.649-.412 1.102c0 .481-.281.721-.844.721-.384 0-.652-.13-.803-.391 0-.59.432-1.177 1.297-1.761.865-.583 1.743-.875 2.636-.875Zm-1.936 7.65c.233.199.535.299.906.299s.728-.113 1.071-.34c.343-.227.515-.456.515-.69v-2.121c-.11.055-.378.151-.803.288-.426.137-.759.257-.999.36-.24.103-.474.275-.7.515-.227.24-.34.518-.34.834 0 .371.116.656.35.855ZM103.112 70.598c.81 0 1.345.199 1.606.597 0 .481-.076.831-.227 1.05-.151.22-.337.329-.556.329-.247 0-.474-.116-.68-.35-.206-.233-.487-.35-.844-.35-.426 0-.796.199-1.112.597-.316.398-.474.817-.474 1.256v3.089c0 .796.055 1.407.165 1.833.027.096.209.189.546.278.336.09.573.134.71.134.041 0 .069.082.082.247.013.165.007.281-.021.35a128.848 128.848 0 0 0-2.224-.103c-.082 0-.831.034-2.244.103-.055-.055-.082-.168-.082-.34s.027-.257.082-.257c.165 0 .408-.044.731-.134.322-.089.497-.182.525-.278.096-.398.144-.878.144-1.441v-3.892c0-.535-.096-.906-.288-1.112a1.053 1.053 0 0 0-.504-.34c-.199-.062-.364-.093-.494-.093s-.196-.013-.196-.041c0-.329.041-.501.124-.515 1.455-.219 2.402-.398 2.842-.535a.625.625 0 0 0 .103-.021c.055 0 .089.059.103.175a.823.823 0 0 1 0 .257l-.124 1.03a4.285 4.285 0 0 1 1.019-1.04c.432-.322.861-.484 1.287-.484ZM107.391 77.207v-8.916c0-.466-.041-.906-.124-1.318-.069-.219-.419-.329-1.05-.329h-.185c-.082 0-.124-.075-.124-.227 0-.219.041-.329.124-.329.412-.041.793-.096 1.143-.165s.625-.137.824-.206c.199-.069.367-.134.504-.196s.24-.113.309-.154l.082-.062h.041c.055 0 .11.038.165.113a.572.572 0 0 1 .103.216c-.151.44-.227 1.037-.227 1.791v9.39c0 .796.055 1.407.165 1.833.027.096.206.189.535.278.329.09.563.134.7.134.041 0 .069.082.082.247.013.165.007.281-.021.35a142.262 142.262 0 0 0-2.203-.103c-.082 0-.831.034-2.244.103-.055-.055-.082-.168-.082-.34s.027-.257.082-.257c.165 0 .408-.044.731-.134.322-.089.497-.182.525-.278.096-.398.144-.878.144-1.441ZM113.894 79.884c0-.247-.103-.583-.309-1.009-.206-.425-.309-.707-.309-.844 0-.302.151-.559.453-.772a1.742 1.742 0 0 1 1.03-.319c.178 0 .343.028.494.082.178.261.268.7.268 1.318 0 .261-.014.44-.041.535-.193.892-.46 1.616-.803 2.172s-.947 1.191-1.812 1.905h-.021c-.055 0-.148-.055-.278-.165-.131-.11-.196-.206-.196-.288 0-.028.079-.113.237-.257.158-.144.333-.312.525-.504.192-.193.367-.46.525-.803.158-.343.237-.693.237-1.05ZM125.725 66.088c.522 0 1.184-.007 1.987-.021.803-.013 1.335-.021 1.596-.021 2.237 0 3.981.659 5.23 1.977 1.249 1.318 1.874 2.869 1.874 4.654 0 1.99-.631 3.652-1.894 4.983-1.263 1.332-3.006 1.997-5.23 1.997-.165 0-.656-.014-1.472-.041-.817-.027-1.5-.034-2.049-.021l-2.492.062c-.041-.041-.062-.144-.062-.309 0-.192.021-.288.062-.288.178 0 .443-.048.793-.144.35-.096.559-.206.628-.329.096-.165.144-.81.144-1.936v-7.784c0-.81-.048-1.4-.144-1.771-.041-.11-.244-.213-.607-.309-.364-.096-.635-.144-.813-.144-.055 0-.082-.082-.082-.247 0-.178.027-.295.082-.35.713.028 1.531.041 2.45.041Zm.906 2.492v8.154c0 .577.103 1.099.309 1.565.055.137.422.24 1.102.309.68.069 1.205.103 1.575.103 3.157 0 4.736-2.039 4.736-6.116 0-1.565-.415-2.896-1.246-3.995-.831-1.098-2.042-1.647-3.634-1.647h-.103c-1.483 0-2.306.11-2.471.329-.178.247-.268.68-.268 1.297ZM139.631 79.524c-.24-.24-.36-.525-.36-.855s.12-.607.36-.834c.24-.227.525-.34.855-.34s.607.113.834.34.34.504.34.834-.113.615-.34.855-.504.36-.834.36-.615-.12-.855-.36ZM146.782 66.088c.522 0 1.184-.007 1.987-.021.803-.013 1.335-.021 1.596-.021 2.237 0 3.981.659 5.23 1.977 1.249 1.318 1.874 2.869 1.874 4.654 0 1.99-.631 3.652-1.894 4.983-1.263 1.332-3.006 1.997-5.23 1.997-.165 0-.656-.014-1.472-.041-.817-.027-1.5-.034-2.049-.021l-2.492.062c-.041-.041-.062-.144-.062-.309 0-.192.021-.288.062-.288.178 0 .443-.048.793-.144.35-.096.559-.206.628-.329.096-.165.144-.81.144-1.936v-7.784c0-.81-.048-1.4-.144-1.771-.041-.11-.244-.213-.607-.309-.364-.096-.635-.144-.813-.144-.055 0-.082-.082-.082-.247 0-.178.027-.295.082-.35.713.028 1.531.041 2.45.041Zm.906 2.492v8.154c0 .577.103 1.099.309 1.565.055.137.422.24 1.102.309.68.069 1.205.103 1.575.103 3.157 0 4.736-2.039 4.736-6.116 0-1.565-.415-2.896-1.246-3.995-.831-1.098-2.042-1.647-3.634-1.647h-.103c-1.483 0-2.306.11-2.471.329-.178.247-.268.68-.268 1.297ZM160.687 79.524c-.24-.24-.36-.525-.36-.855s.12-.607.36-.834c.24-.227.525-.34.855-.34s.607.113.834.34.34.504.34.834-.113.615-.34.855-.504.36-.834.36-.615-.12-.855-.36ZM165.861 69.506c0-1.057.405-1.925 1.215-2.605a4.254 4.254 0 0 1 2.821-1.019 6.995 6.995 0 0 1 1.514.164c.172.041.419.106.741.196.322.09.607.162.855.216.165.728.247 1.709.247 2.945 0 .096-.069.144-.206.144-.329 0-.508-.069-.535-.206-.069-.604-.36-1.191-.875-1.761-.515-.569-1.143-.855-1.884-.855-.824 0-1.404.206-1.74.618-.337.412-.504.92-.504 1.524 0 .261.048.512.144.752.096.24.192.44.288.597.096.158.271.34.525.546.254.206.439.35.556.432.116.082.35.234.7.453.35.22.573.357.669.412.069.041.309.189.721.443s.693.432.844.535c.151.103.388.288.71.556.322.268.556.504.7.71s.281.463.412.772c.13.309.196.628.196.957 0 1.099-.429 2.001-1.287 2.708-.858.707-1.864 1.06-3.017 1.06a8.19 8.19 0 0 1-1.05-.072c-.371-.048-.68-.096-.927-.144s-.559-.116-.937-.206a19.674 19.674 0 0 0-.793-.175c-.343-1.688-.515-2.78-.515-3.274 0-.082.11-.124.329-.124.247 0 .419.062.515.185.466 1.977 1.606 2.965 3.418 2.965.686 0 1.269-.206 1.75-.618.48-.412.721-.995.721-1.75a2.26 2.26 0 0 0-.124-.762 3.363 3.363 0 0 0-.257-.577c-.09-.151-.247-.312-.474-.484-.227-.172-.402-.299-.525-.381s-.35-.213-.68-.391a76.025 76.025 0 0 1-.68-.371 67.345 67.345 0 0 1-.834-.494 27.724 27.724 0 0 1-.782-.504c-.364-.24-.628-.453-.793-.638s-.357-.412-.577-.68a2.422 2.422 0 0 1-.463-.855 3.3 3.3 0 0 1-.134-.947ZM176.987 79.524c-.24-.24-.36-.525-.36-.855s.12-.607.36-.834c.24-.227.525-.34.855-.34s.607.113.834.34.34.504.34.834-.113.615-.34.855-.504.36-.834.36-.615-.12-.855-.36ZM183.335 79.884c0-.247-.103-.583-.309-1.009-.206-.425-.309-.707-.309-.844 0-.302.151-.559.453-.772a1.742 1.742 0 0 1 1.03-.319c.178 0 .343.028.494.082.178.261.268.7.268 1.318 0 .261-.014.44-.041.535-.193.892-.46 1.616-.803 2.172s-.947 1.191-1.812 1.905h-.021c-.055 0-.148-.055-.278-.165-.131-.11-.196-.206-.196-.288 0-.028.079-.113.237-.257.158-.144.333-.312.525-.504.192-.193.367-.46.525-.803.158-.343.237-.693.237-1.05ZM195.372 66.067c.508 0 1.139-.034 1.894-.103.096.316 1.455 3.755 4.077 10.316.013.028.041.041.082.041.055 0 .089-.027.103-.082 1.345-3.157 2.416-5.758 3.212-7.804l.824-2.471c.878.055 1.448.082 1.709.082.851 0 1.62-.027 2.306-.082.041.124.062.227.062.309 0 .193-.034.288-.103.288h-.041c-.151 0-.35.045-.597.134a2.11 2.11 0 0 0-.556.278c-.165.124-.247.584-.247 1.38 0 .22.062 3.006.185 8.36.013.782.116 1.414.309 1.894.055.124.26.23.618.319.357.09.611.134.762.134.055 0 .082.096.082.288a1 1 0 0 1-.041.309c-1.373-.069-2.19-.103-2.45-.103-.069 0-.893.034-2.471.103-.055-.055-.082-.165-.082-.329 0-.178.027-.268.082-.268.137 0 .347-.034.628-.103.281-.069.484-.137.607-.206.165-.096.247-.391.247-.885v-1.091l-.247-7.248a5.534 5.534 0 0 0-.113-.772c-.062-.295-.127-.443-.196-.443-.028 0-.062.048-.103.144l-4.304 10.296c-.261.59-.515.885-.762.885a.665.665 0 0 1-.185-.041l-4.715-11.984a413.634 413.634 0 0 1-.124 4.53 912.585 912.585 0 0 1-.206 5.91c0 .247.041.426.124.535.082.11.333.216.752.319.419.103.697.154.834.154.055 0 .082.103.082.309 0 .11-.014.206-.041.288a85.93 85.93 0 0 0-2.389-.103c-.028 0-.831.034-2.409.103-.069-.069-.103-.172-.103-.309 0-.192.034-.288.103-.288.192 0 .477-.044.855-.134.378-.089.628-.196.752-.319.219-.247.343-.844.371-1.791a667.5 667.5 0 0 1 .093-4.221c.034-1.386.065-2.474.093-3.264.027-.789.041-1.294.041-1.513 0-.343-.028-.618-.082-.824-.041-.11-.275-.209-.7-.299-.426-.089-.734-.134-.927-.134-.055 0-.082-.096-.082-.288 0-.151.027-.254.082-.309.233.014.491.028.772.041l.772.041c.233.014.487.021.762.021ZM212.943 79.524c-.24-.24-.36-.525-.36-.855s.12-.607.36-.834c.24-.227.525-.34.855-.34s.607.113.834.34.34.504.34.834-.113.615-.34.855-.504.36-.834.36-.615-.12-.855-.36ZM229.916 75.828c0 .151-.096.676-.288 1.575-.193.899-.329 1.369-.412 1.411-1.002.604-2.643.906-4.921.906-1.812 0-3.353-.666-4.623-1.997s-1.905-2.917-1.905-4.757c0-1.949.652-3.621 1.956-5.014 1.304-1.393 2.903-2.09 4.798-2.09 1.62 0 3.287.172 5.004.515-.028 1.84-.041 2.828-.041 2.965 0 .206-.144.309-.432.309-.137 0-.227-.034-.268-.103-.041-.178-.093-.36-.154-.546s-.193-.425-.391-.721a3.186 3.186 0 0 0-.721-.762c-.281-.213-.68-.398-1.194-.556a5.925 5.925 0 0 0-1.74-.237c-1.346 0-2.492.594-3.439 1.781-.947 1.187-1.421 2.53-1.421 4.026 0 1.112.192 2.135.577 3.068a5.359 5.359 0 0 0 1.822 2.317c.831.611 1.815.916 2.955.916 1.359 0 2.409-.398 3.15-1.194.192-.206.36-.477.504-.813.144-.336.254-.618.329-.844.075-.227.134-.34.175-.34.082 0 .182.014.299.041.116.028.209.055.278.082l.103.062ZM232.856 77.207v-8.916c0-.466-.041-.906-.124-1.318-.069-.219-.419-.329-1.05-.329h-.185c-.082 0-.124-.075-.124-.227 0-.219.041-.329.124-.329.412-.041.793-.096 1.143-.165s.625-.137.824-.206c.199-.069.367-.134.504-.196s.24-.113.309-.154l.082-.062h.041c.055 0 .11.038.165.113a.572.572 0 0 1 .103.216c-.151.44-.227 1.037-.227 1.791v9.39c0 .796.055 1.407.165 1.833.027.096.206.189.535.278.329.09.563.134.7.134.041 0 .069.082.082.247.013.165.007.281-.021.35a142.262 142.262 0 0 0-2.203-.103c-.082 0-.831.034-2.244.103-.055-.055-.082-.168-.082-.34s.027-.257.082-.257c.165 0 .408-.044.731-.134.322-.089.497-.182.525-.278.096-.398.144-.878.144-1.441ZM238.504 79.524c-.24-.24-.36-.525-.36-.855s.12-.607.36-.834c.24-.227.525-.34.855-.34s.607.113.834.34.34.504.34.834-.113.615-.34.855-.504.36-.834.36-.615-.12-.855-.36ZM245.656 66.088c.522 0 1.184-.007 1.987-.021.803-.013 1.335-.021 1.596-.021 2.237 0 3.981.659 5.23 1.977 1.249 1.318 1.874 2.869 1.874 4.654 0 1.99-.631 3.652-1.894 4.983-1.263 1.332-3.006 1.997-5.23 1.997-.165 0-.656-.014-1.472-.041-.817-.027-1.5-.034-2.049-.021l-2.492.062c-.041-.041-.062-.144-.062-.309 0-.192.021-.288.062-.288.178 0 .443-.048.793-.144.35-.096.559-.206.628-.329.096-.165.144-.81.144-1.936v-7.784c0-.81-.048-1.4-.144-1.771-.041-.11-.244-.213-.607-.309-.364-.096-.635-.144-.813-.144-.055 0-.082-.082-.082-.247 0-.178.027-.295.082-.35.713.028 1.531.041 2.45.041Zm.906 2.492v8.154c0 .577.103 1.099.309 1.565.055.137.422.24 1.102.309.68.069 1.205.103 1.575.103 3.157 0 4.736-2.039 4.736-6.116 0-1.565-.415-2.896-1.246-3.995-.831-1.098-2.042-1.647-3.634-1.647h-.103c-1.483 0-2.306.11-2.471.329-.178.247-.268.68-.268 1.297ZM259.561 79.524c-.24-.24-.36-.525-.36-.855s.12-.607.36-.834c.24-.227.525-.34.855-.34s.607.113.834.34.34.504.34.834-.113.615-.34.855-.504.36-.834.36-.615-.12-.855-.36Z" class="cls-1"/></g><path d="M262.355 44.613a32.733 32.733 0 0 0-.872-.429 7.028 7.028 0 0 1-.26-.127h-8.758v-1.592h-4.085v1.592h-18.909v-1.592h-4.085v1.592h-8.864v-1.592h-4.085v1.592h-12.533v-1.592h-4.085v1.592h-22.611v-1.592h-4.085v1.592h-23.378v-1.592h-4.085v1.592h-19.561v-1.592h-4.085v1.592H93.627v-1.592h-4.085v1.592h-21.54v-1.592h-4.085v1.592h-12.37v-1.592h-4.085v1.592H30.325v-1.592H26.24v1.592H4.872v2.46h21.365v1.596h4.085v-1.596h17.137v1.596h4.085v-1.596h12.37v1.596h4.085v-1.596h21.54v1.596h4.085v-1.596h24.387v1.596h4.085v-1.596h19.561v1.596h4.085v-1.596h23.378v1.596h4.085v-1.596h22.611v1.596h4.085v-1.596h12.533v1.596h4.085v-1.596h8.864v1.596h4.085v-1.596h18.909v1.596h4.085v-1.596h9.89v-1.905ZM182.794 13.892h-9.515v-1.594h-4.086v1.594H139.13v-1.594h-4.086v1.594h-31.416v-1.594h-4.085v1.594H79.444v2.46h20.099v1.594h4.085v-1.594h31.416v1.594h4.086v-1.594h30.063v1.594h4.086v-1.594h9.515v-2.46z" class="cls-3"/><g><path d="M92.514 27.327 80.596 14.043v9.792c0 1.265.177 2.151.532 2.657.354.507.683.785.987.835H76.27c.304-.05.645-.323 1.025-.816.38-.493.569-1.385.569-2.676V4.744c0-1.29-.177-2.176-.532-2.657-.355-.48-.708-.771-1.063-.873h5.845c-.304.051-.633.323-.987.816-.355.494-.532 1.398-.532 2.714v9.185l8.995-8.957c1.442-1.442 2.163-2.429 2.163-2.96 0-.455-.177-.721-.531-.797h5.959c-.405.051-1.044.323-1.917.816-.873.494-1.993 1.424-3.359 2.79l-8.502 8.426 9.602 10.437c1.163 1.342 2.081 2.258 2.752 2.752.67.494 1.145.791 1.423.892h-4.668ZM114.869 17.193l-2.429 6.035c-.38.937-.569 1.708-.569 2.315 0 .835.38 1.43 1.139 1.784h-5.428c.253 0 .62-.253 1.101-.759.48-.506 1.037-1.505 1.67-2.998L120.258 0l9.83 23.683c.556 1.366 1.094 2.303 1.613 2.809.519.507.93.785 1.234.835h-6.301c.632-.304.949-.771.949-1.404 0-.531-.203-1.29-.607-2.277l-2.657-6.452h-9.45Zm8.843-1.556-4.137-10.134-4.061 10.134h8.198ZM156.732 13.379a5.344 5.344 0 0 0 1.954-2.125c.442-.873.664-1.79.664-2.752 0-.987-.209-1.917-.626-2.789-.418-.873-1.057-1.588-1.917-2.145-.86-.556-1.911-.835-3.15-.835h-3.226v21.103c0 1.012.126 1.778.38 2.296.253.519.532.861.835 1.025.304.165.455.221.455.171h-6.035c0 .05.152-.012.455-.19.304-.177.576-.518.816-1.025.24-.506.361-1.265.361-2.277V4.858c0-1.037-.12-1.828-.361-2.372-.241-.544-.512-.911-.816-1.101-.303-.19-.455-.246-.455-.171h7.515c1.973 0 3.599.323 4.877.968 1.277.645 2.201 1.48 2.771 2.505s.854 2.144.854 3.359c0 1.012-.241 2.006-.721 2.98a7.513 7.513 0 0 1-2.068 2.543c-.898.721-1.942 1.221-3.131 1.499l-.607.114 6.68 8.501c.885.987 1.619 1.746 2.201 2.277.582.531 1.006.886 1.272 1.063.266.177.423.279.474.304h-4.441l-10.323-13.132h2.277c1.164 0 2.176-.271 3.037-.816ZM180.737 2.448c-.241-.518-.512-.867-.816-1.044-.303-.177-.455-.24-.455-.19h6.035c0-.05-.152.013-.455.19-.303.177-.582.525-.835 1.044s-.38 1.285-.38 2.296v21.064h6.224c1.139 0 2.119-.234 2.941-.702.822-.468 1.411-1.068 1.765-1.803l-.683 4.023h-14.612c0 .076.152.019.455-.171.304-.19.576-.569.816-1.138s.361-1.398.361-2.486V4.744c0-1.012-.12-1.777-.361-2.296Z" class="cls-4"/></g><g><path d="M24.137 44.058c-.119-1.659-.555-3.107-1.293-4.351-.893-1.476-2.073-2.586-3.542-3.324a10.347 10.347 0 0 0-4.737-1.111c-2.024 0-3.809.429-5.356 1.286a9.043 9.043 0 0 0-3.599 3.634c-.858 1.553-1.279 3.324-1.279 5.314 0 2.08.443 3.859 1.335 5.342.886 1.476 2.066 2.586 3.542 3.325a10.332 10.332 0 0 0 4.737 1.118c2.024 0 3.809-.436 5.356-1.293a9.12 9.12 0 0 0 3.599-3.627c.633-1.167 1.033-2.446 1.202-3.852.049-.471.077-.963.077-1.469 0-.337-.014-.668-.042-.991Zm-3.135 5.96c-.619 1.3-1.476 2.305-2.572 3.015-1.096.717-2.348 1.068-3.753 1.068-1.539 0-2.924-.387-4.147-1.16-1.23-.78-2.193-1.856-2.896-3.233a9.53 9.53 0 0 1-.963-3.191 10.761 10.761 0 0 1-.091-1.441c0-.351.014-.689.042-1.019.098-1.307.394-2.474.886-3.514.618-1.307 1.476-2.312 2.572-3.022 1.096-.717 2.348-1.068 3.753-1.068 1.532 0 2.917.387 4.147 1.16 1.223.78 2.193 1.863 2.896 3.233.506.984.822 2.059.97 3.212a12.531 12.531 0 0 1 .042 2.46c-.098 1.3-.394 2.46-.886 3.5ZM46.122 54.727c-.197-.134-.513-.394-.942-.787-.436-.394-.977-.956-1.631-1.687l-4.505-5.735-.443-.562.45-.084a5.908 5.908 0 0 0 2.319-1.111c.267-.218.513-.457.738-.703.316-.365.583-.759.794-1.188.351-.717.534-1.455.534-2.2 0-.907-.211-1.729-.632-2.488-.422-.759-1.111-1.378-2.052-1.856-.949-.485-2.151-.717-3.613-.717h-5.44c.056.028.126.07.211.127.225.134.422.408.604.808.176.408.267.991.267 1.757v14.057c0 .752-.091 1.314-.267 1.694-.183.373-.379.626-.604.752-.12.07-.211.119-.267.148h4.33a1.743 1.743 0 0 1-.267-.134c-.225-.119-.436-.373-.618-.752-.19-.387-.281-.956-.281-1.708V36.734h2.39c.914 0 1.694.204 2.333.611.633.415 1.11.942 1.42 1.595.309.647.464 1.335.464 2.066 0 .71-.169 1.392-.492 2.038-.197.38-.443.717-.745 1.012a3.919 3.919 0 0 1-.703.555c-.64.408-1.392.611-2.249.611h-1.687l1.019 1.293 6.628 8.434h3.289c-.042-.021-.155-.098-.351-.225Zm-10.079.225h-.07c.049.014.07.014.07 0Zm-4.47-19.343h.126c-.084-.035-.126-.035-.126 0Zm.07 19.343h-.07c0 .014.021.014.07 0ZM64.46 35.609H51.141l-.401 2.811c.246-.492.64-.893 1.188-1.216.541-.316 1.223-.471 2.052-.471h2.811v15.596c0 .773-.091 1.35-.267 1.736-.183.38-.38.64-.605.766a1.216 1.216 0 0 1-.232.119h4.259a1.216 1.216 0 0 1-.232-.119c-.232-.127-.436-.394-.619-.78-.19-.394-.288-.97-.288-1.722V36.733h2.811c.829 0 1.511.155 2.059.471.541.323.935.724 1.181 1.216l-.401-2.811Zm-4.407 19.343h-.105c.07.035.105.028.105 0Zm-4.365 0h-.105c0 .035.035.035.105 0ZM88.378 54.952c.049.014.07.014.07 0h-.07Zm-.085-19.343h.126c0-.035-.042-.035-.126 0Zm-.808 18.429c-.183-.387-.281-.956-.281-1.708V38.224c0-.752.091-1.321.267-1.708.183-.38.38-.647.611-.78.084-.056.155-.098.211-.127H84.02c.056.021.141.07.26.141.225.127.436.387.625.766.183.387.274.956.274 1.708v6.487H74.608v-6.487c0-.752.098-1.321.281-1.708.19-.38.394-.64.619-.766.126-.077.211-.119.267-.141h-4.322c.056.021.141.07.26.141.232.127.429.387.612.766.176.387.267.956.267 1.708V52.33c0 .752-.091 1.321-.267 1.708-.183.38-.38.647-.612.78a2.775 2.775 0 0 1-.232.134h4.294c-.056-.028-.141-.077-.267-.148-.225-.127-.429-.387-.619-.766-.183-.387-.281-.956-.281-1.708v-6.375h10.571v6.375c0 .752-.091 1.321-.274 1.708-.19.38-.401.647-.625.78a2.775 2.775 0 0 1-.232.134h4.33c-.056-.021-.148-.077-.267-.148-.232-.127-.436-.387-.626-.766Zm-3.437.914h-.105c0 .028.035.035.105 0Zm-.105-19.343h.077c-.049-.021-.077-.021-.077 0Zm-8.097 19.343h-.07c.049.014.07.014.07 0Zm-.07-19.343h.07c0-.021-.021-.021-.07 0Zm-4.295 19.343h-.105c0 .028.035.035.105 0Zm-.105-19.343h.077c-.049-.021-.077-.021-.077 0ZM115.613 44.058c-.112-1.659-.548-3.107-1.293-4.351-.886-1.476-2.066-2.586-3.542-3.324-1.469-.745-3.05-1.111-4.737-1.111-2.024 0-3.809.429-5.356 1.286a9.087 9.087 0 0 0-3.599 3.634c-.64 1.167-1.04 2.453-1.202 3.866-.049.464-.077.949-.077 1.448 0 .344.014.682.042 1.012.119 1.652.555 3.093 1.293 4.33.893 1.476 2.073 2.586 3.542 3.325a10.353 10.353 0 0 0 4.737 1.118c2.024 0 3.809-.436 5.356-1.293a9.076 9.076 0 0 0 3.599-3.627c.64-1.167 1.04-2.446 1.202-3.852.049-.471.077-.963.077-1.469 0-.337-.014-.668-.042-.991Zm-3.135 5.96c-.618 1.3-1.476 2.305-2.572 3.015-1.096.717-2.348 1.068-3.753 1.068-1.532 0-2.917-.387-4.147-1.16-1.223-.78-2.193-1.856-2.896-3.233a9.53 9.53 0 0 1-.963-3.191 10.761 10.761 0 0 1-.091-1.441c0-.351.014-.689.042-1.019.098-1.307.394-2.474.886-3.514.619-1.307 1.476-2.312 2.572-3.022 1.096-.717 2.348-1.068 3.753-1.068 1.539 0 2.924.387 4.147 1.16 1.23.78 2.193 1.863 2.896 3.233.506.984.822 2.059.97 3.212a12.531 12.531 0 0 1 .042 2.46c-.098 1.3-.394 2.46-.886 3.5ZM139.946 44.058c-.126-1.349-.506-2.579-1.153-3.697-.801-1.406-1.947-2.523-3.43-3.346-1.666-.942-3.936-1.406-6.804-1.406h-5.433c.056.021.141.07.26.141.225.127.429.387.605.766.183.387.267.949.267 1.68v13.825c0 .829-.084 1.455-.267 1.891-.176.429-.38.724-.605.879a1.486 1.486 0 0 1-.26.162h5.461c2.945 0 5.3-.527 7.057-1.581a8.34 8.34 0 0 0 3.219-3.296c.569-1.04.921-2.228 1.068-3.556.049-.45.07-.921.07-1.406 0-.358-.014-.71-.056-1.054Zm-2.938 5.37c-.492 1.146-1.202 2.08-2.123 2.797-.71.541-1.56.942-2.544 1.202-.984.267-2.242.394-3.781.394h-2.277V36.735h2.277c1.293 0 2.411.119 3.346.365.942.239 1.82.633 2.643 1.174.998.661 1.778 1.603 2.347 2.825.415.886.675 1.87.787 2.959.049.429.07.872.07 1.328 0 .387-.014.766-.049 1.132-.091 1.075-.323 2.052-.696 2.91Zm-13.959-13.819h.077c-.049-.021-.077-.021-.077 0Zm.078 19.343h-.077c0 .028.028.028.077 0ZM166.837 44.058c-.112-1.659-.548-3.107-1.293-4.351-.886-1.476-2.066-2.586-3.542-3.324-1.469-.745-3.05-1.111-4.737-1.111-2.024 0-3.809.429-5.356 1.286a9.087 9.087 0 0 0-3.599 3.634c-.64 1.167-1.04 2.453-1.202 3.866-.049.464-.077.949-.077 1.448 0 .344.014.682.042 1.012.12 1.652.555 3.093 1.293 4.33.893 1.476 2.073 2.586 3.542 3.325a10.353 10.353 0 0 0 4.737 1.118c2.024 0 3.809-.436 5.356-1.293a9.076 9.076 0 0 0 3.599-3.627c.64-1.167 1.04-2.446 1.202-3.852.049-.471.077-.963.077-1.469 0-.337-.014-.668-.042-.991Zm-3.135 5.96c-.619 1.3-1.476 2.305-2.572 3.015-1.096.717-2.348 1.068-3.753 1.068-1.532 0-2.917-.387-4.147-1.16-1.223-.78-2.193-1.856-2.896-3.233a9.53 9.53 0 0 1-.963-3.191 10.761 10.761 0 0 1-.091-1.441c0-.351.014-.689.042-1.019.098-1.307.394-2.474.886-3.514.619-1.307 1.476-2.312 2.572-3.022 1.096-.717 2.348-1.068 3.753-1.068 1.539 0 2.924.387 4.147 1.16 1.23.78 2.193 1.863 2.896 3.233.506.984.822 2.059.97 3.212a12.531 12.531 0 0 1 .042 2.46c-.098 1.3-.394 2.46-.886 3.5ZM188.415 35.609c.977.26 1.462 1.111 1.462 2.558V50.98l-3.831-4.463-2.109-2.46-7.246-8.448h-3.486a2.726 2.726 0 0 1 1.631.977c.436.527.647 1.111.647 1.743v14.057c0 .921-.134 1.567-.408 1.933-.267.365-.534.569-.801.633h3.964c-.295-.063-.604-.267-.928-.633-.316-.365-.478-.998-.478-1.905v-13.46l4.379 5.103 2.109 2.46 7.907 9.221V38.167c0-.921.127-1.567.38-1.933s.513-.569.773-.626h-3.964ZM212.677 35.609h-13.326l-.394 2.811c.246-.492.64-.893 1.181-1.216.548-.316 1.23-.471 2.052-.471h2.811v15.596c0 .773-.084 1.35-.267 1.736-.176.38-.379.64-.604.766-.098.056-.169.098-.225.119h4.252a1.216 1.216 0 0 1-.232-.119c-.225-.127-.429-.394-.619-.78-.183-.394-.281-.97-.281-1.722V36.733h2.811c.829 0 1.511.155 2.052.471.548.323.942.724 1.181 1.216l-.394-2.811Zm-4.414 19.343h-.105c.07.035.105.028.105 0Zm-4.357 0h-.112c0 .035.035.035.112 0ZM224.063 54.952h-.07c.049.014.07.014.07 0Zm-.077-19.343h.077c0-.021-.028-.021-.077 0Zm-.878 18.429c-.183-.387-.281-.956-.281-1.708V38.224c0-.752.098-1.321.281-1.708.19-.38.394-.64.618-.766.12-.07.204-.119.26-.141h-4.316c.056.021.141.07.26.141.225.127.429.387.604.766.183.387.267.956.267 1.708V52.33c0 .752-.091 1.321-.281 1.708-.183.38-.394.647-.619.78a2.775 2.775 0 0 1-.232.134h4.323a4.245 4.245 0 0 1-.267-.148c-.225-.127-.429-.387-.618-.766Zm-3.515-18.429h.077c-.049-.021-.077-.021-.077 0Zm.077 19.343h-.105c0 .028.035.035.105 0ZM234.606 40.656c.619-1.307 1.511-2.333 2.685-3.086 1.174-.745 2.558-1.118 4.147-1.118 1.258 0 2.439.302 3.542.914 1.111.604 1.954 1.427 2.53 2.46v-3.121c-1.701-.956-3.655-1.434-5.848-1.434-2.059 0-3.866.422-5.412 1.272a8.965 8.965 0 0 0-3.571 3.556 10.143 10.143 0 0 0-1.188 3.957c-.042.387-.063.787-.063 1.195 0 .436.021.857.063 1.265.155 1.518.583 2.882 1.3 4.069.914 1.518 2.116 2.685 3.613 3.486a10.091 10.091 0 0 0 4.864 1.216c1.16 0 2.319-.197 3.458-.59 1.146-.394 2.073-.886 2.783-1.462v-1.349c-1.553 1.385-3.521 2.08-5.904 2.08-1.476 0-2.818-.365-4.02-1.082-1.195-.724-2.151-1.757-2.854-3.107-.499-.963-.822-2.052-.97-3.261a12.867 12.867 0 0 1-.084-1.497c0-.33.014-.647.042-.963.098-1.23.394-2.369.886-3.402ZM265.757 47.277a5.518 5.518 0 0 0-1.687-1.687 20.32 20.32 0 0 0-1.715-.977 32.733 32.733 0 0 0-.872-.429 7.028 7.028 0 0 1-.26-.127c-.907-.436-1.624-.808-2.144-1.118a5.287 5.287 0 0 1-1.448-1.244c-.394-.499-.59-1.096-.59-1.785 0-.956.33-1.785.984-2.474.661-.696 1.518-1.04 2.586-1.04.942 0 1.863.281 2.769.85.914.576 1.588 1.378 2.038 2.411v-3.043a8.863 8.863 0 0 0-2.249-.991 8.662 8.662 0 0 0-2.474-.351c-.97 0-1.87.204-2.685.626a4.937 4.937 0 0 0-1.94 1.799c-.478.78-.717 1.666-.717 2.664 0 1.16.373 2.144 1.111 2.959.225.253.492.499.801.738.703.555 1.624 1.089 2.755 1.61.64.302 1.195.583 1.673.85.394.218.738.429 1.026.626.64.443 1.104.921 1.392 1.42.295.513.436 1.118.436 1.834 0 1.068-.365 1.961-1.096 2.678-.731.724-1.638 1.082-2.727 1.082s-2.13-.323-3.135-.963c-.998-.647-1.743-1.603-2.235-2.861v3.402a8.42 8.42 0 0 0 2.418 1.139c.9.274 1.834.415 2.811.415a6.505 6.505 0 0 0 2.91-.661 5.275 5.275 0 0 0 2.137-1.905c.534-.822.801-1.799.801-2.917 0-.998-.225-1.841-.675-2.53Z" class="cls-4"/></g><g><path d="M.298 100.937a.436.436 0 0 1-.211-.037.2.2 0 0 1-.086-.124c-.008-.066.027-.118.105-.155s.184-.072.316-.105a4.41 4.41 0 0 0 .638-.235c.194-.091.373-.2.538-.328.166-.128.315-.267.447-.415.611-.677 1.17-1.33 1.678-1.957s.997-1.251 1.468-1.871a203.142 203.142 0 0 1 1.895-2.453c.05-.058.091-.087.124-.087.173 0 .291-.029.353-.087.062-.057.143-.14.242-.248.115-.132.196-.221.241-.267.046-.045.089-.068.13-.068s.07.025.086.074c.016.049.009.157-.024.322l-1.289 6.467c-.083.397-.089.679-.019.849s.221.287.452.353c.132.033.232.064.297.093.067.029.099.073.099.13 0 .05-.029.087-.086.111a.829.829 0 0 1-.297.037 5.62 5.62 0 0 1-.416-.019c-.169-.012-.348-.025-.538-.037a8.692 8.692 0 0 0-.545-.019h-.452c-.153 0-.297.002-.434.006s-.25.006-.34.006c-.174 0-.273-.05-.297-.149-.009-.058.02-.109.086-.155a.636.636 0 0 1 .26-.093c.272-.049.485-.105.638-.167a.769.769 0 0 0 .36-.285c.087-.128.159-.308.217-.539l.384-1.474c.034-.124.01-.211-.067-.26a.533.533 0 0 0-.291-.074l-1.388.025a.95.95 0 0 0-.315.043.48.48 0 0 0-.217.18L2.764 99.61c-.149.198-.229.353-.242.465-.012.111.017.194.087.248.07.054.15.097.241.13s.165.07.223.111a.19.19 0 0 1 .087.161c0 .058-.034.099-.099.124a.712.712 0 0 1-.248.037c-.107 0-.241-.004-.403-.013a10.154 10.154 0 0 0-1.387.024 8.81 8.81 0 0 1-.725.037Zm4.584-3.655 1.326-.013c.091 0 .162-.025.211-.074.049-.049.091-.14.124-.272l.595-2.714a.72.72 0 0 0 .03-.216c-.003-.045-.027-.068-.067-.068a.284.284 0 0 0-.111.025.296.296 0 0 0-.124.124L4.661 97.01a.542.542 0 0 0-.099.198c-.009.05.099.074.321.074ZM11.944 101.048c-.181 0-.339-.051-.471-.155s-.198-.233-.198-.39c0-.19.043-.332.13-.427.087-.095.159-.143.217-.143s.118.023.18.068.13.101.205.167c.091.066.192.13.303.192s.258.093.44.093c.223 0 .4-.08.532-.242s.202-.332.211-.514c0-.181-.031-.378-.093-.589a2.986 2.986 0 0 0-.266-.626c-.107-.198-.196-.386-.266-.563s-.105-.328-.105-.452c0-.239.064-.465.192-.675.128-.211.285-.395.471-.551s.37-.279.551-.366.327-.13.434-.13.214.031.322.093c.107.062.195.132.266.21.07.079.105.147.105.204 0 .05-.025.11-.074.18-.05.07-.108.134-.174.192-.067.057-.124.086-.174.086-.041 0-.082-.02-.124-.062l-.137-.137a.893.893 0 0 0-.18-.136.548.548 0 0 0-.278-.062.453.453 0 0 0-.347.167.637.637 0 0 0-.149.44c0 .066.023.169.068.309.046.141.099.285.162.434.061.149.121.281.179.396.091.165.175.374.254.626.079.252.118.473.118.663 0 .248-.072.475-.216.681a2.078 2.078 0 0 1-.564.539 2.904 2.904 0 0 1-1.523.477ZM13.84 104.418a.369.369 0 0 1-.13-.025c-.045-.017-.068-.045-.068-.087 0-.066.044-.122.13-.167s.167-.072.242-.08c.173-.033.309-.079.409-.137.099-.058.177-.165.235-.322l2.391-6.678c.041-.116.066-.203.074-.26.008-.058-.004-.097-.037-.118-.033-.02-.091-.022-.174-.006-.198.033-.37.068-.514.105a2.733 2.733 0 0 0-.477.179c-.066.033-.126.039-.18.019-.054-.02-.08-.056-.08-.105 0-.066.019-.12.056-.161s.08-.074.13-.099c.132-.066.322-.156.57-.272.247-.116.537-.215.867-.297.058-.017.105-.039.143-.068s.064-.072.08-.13c.116-.388.223-.669.322-.843s.239-.26.421-.26c.067 0 .124.021.174.062.049.041.067.099.049.174l-.21.719c-.025.083-.029.142-.013.179s.041.052.074.044a5.54 5.54 0 0 1 .291-.037c.087-.008.172-.013.254-.013.413 0 .737.068.973.204.235.137.4.322.495.557.095.235.143.498.143.787 0 .397-.091.811-.272 1.245a5.111 5.111 0 0 1-.737 1.226 4.2 4.2 0 0 1-1.041.936 2.23 2.23 0 0 1-1.195.359.534.534 0 0 1-.248-.074 6.177 6.177 0 0 1-.26-.149c-.074-.049-.134-.064-.18-.043-.045.021-.097.109-.155.266l-.818 2.416c-.058.174-.04.304.055.391.095.086.246.138.453.155.082.008.165.025.247.05.083.025.124.07.124.136 0 .05-.037.085-.111.105a.95.95 0 0 1-.248.031c-.124 0-.252-.002-.384-.006s-.254-.006-.366-.006-.205.004-.279.012c-.207.025-.407.045-.601.062a7.626 7.626 0 0 1-.626.025Zm3.629-3.79c.19 0 .404-.105.645-.316.239-.21.468-.481.687-.811.219-.33.401-.681.545-1.053s.217-.722.217-1.053c0-.462-.083-.776-.248-.942-.165-.165-.396-.252-.694-.26h-.223a1.35 1.35 0 0 0-.247.025l-1.14 3.345c-.05.149-.077.287-.08.415a.88.88 0 0 0 .043.328.494.494 0 0 0 .18.242.545.545 0 0 0 .315.081ZM22.041 101.061a.881.881 0 0 1-.526-.198 1.607 1.607 0 0 1-.44-.502 1.18 1.18 0 0 1-.174-.589c0-.413.085-.853.254-1.319s.403-.904.7-1.314c.297-.409.642-.743 1.034-1.003s.807-.39 1.245-.39c.29 0 .514.06.675.18.162.12.242.287.242.502 0 .256-.08.479-.242.669-.161.19-.378.353-.65.49-.273.136-.576.25-.911.34-.334.091-.675.169-1.022.235a.566.566 0 0 0-.118.031c-.029.012-.052.043-.068.093-.058.181-.116.38-.173.595a2.333 2.333 0 0 0-.087.607c0 .289.056.512.168.669s.274.235.489.235c.297 0 .55-.074.756-.223.206-.149.375-.297.507-.446.083-.091.157-.137.223-.137.083 0 .124.041.124.124v.043a.08.08 0 0 1-.025.056 3.028 3.028 0 0 1-.557.688 2.255 2.255 0 0 1-.663.421 2.014 2.014 0 0 1-.762.143Zm.273-3.184c.091 0 .245-.026.464-.08.219-.054.449-.14.688-.26s.444-.268.614-.446a.894.894 0 0 0 .254-.638c0-.107-.029-.2-.087-.279a.29.29 0 0 0-.248-.118c-.173 0-.361.072-.563.216a3.572 3.572 0 0 0-.576.521 4.392 4.392 0 0 0-.453.588c-.119.19-.18.331-.18.421 0 .05.029.074.087.074ZM26.303 101.061a.827.827 0 0 1-.465-.167c-.161-.111-.297-.264-.409-.458s-.167-.419-.167-.675c.008-.298.058-.626.149-.985s.223-.716.397-1.072c.173-.355.39-.681.65-.979s.56-.535.899-.713a2.407 2.407 0 0 1 1.139-.266c.224 0 .392.039.508.118.116.079.174.172.174.279a.81.81 0 0 1-.118.403c-.079.137-.163.204-.254.204a.208.208 0 0 1-.168-.086 1.305 1.305 0 0 1-.13-.211 1.217 1.217 0 0 0-.186-.254c-.074-.078-.182-.118-.322-.118-.198 0-.404.12-.62.359-.214.24-.415.545-.601.917s-.337.764-.452 1.177a4.205 4.205 0 0 0-.174 1.127c0 .273.054.458.161.557a.615.615 0 0 0 .434.149c.264 0 .475-.051.632-.155.157-.103.314-.229.471-.378.058-.058.101-.099.13-.124a.172.172 0 0 1 .118-.037c.066 0 .099.054.099.161 0 .066-.051.165-.155.297a2.72 2.72 0 0 1-1.029.781 1.765 1.765 0 0 1-.712.149ZM29.896 101.048a.469.469 0 0 1-.347-.136c-.092-.091-.137-.186-.137-.285 0-.033.002-.066.006-.099a.315.315 0 0 1 .031-.099c.339-.686.623-1.332.855-1.939.231-.607.437-1.138.62-1.592.033-.099.012-.149-.062-.149a.885.885 0 0 0-.241.068 3.33 3.33 0 0 0-.726.403c-.041.033-.083.041-.124.025-.041-.016-.062-.045-.062-.087 0-.041.031-.101.092-.179.062-.079.149-.167.26-.267.111-.099.246-.204.403-.316.157-.111.328-.223.514-.334s.382-.213.589-.304a.219.219 0 0 1 .223.025.581.581 0 0 1 .18.186c.046.074.06.132.043.173l-1.512 3.581a.821.821 0 0 0-.086.359c0 .058.022.097.068.118a.305.305 0 0 0 .13.031c.116 0 .248-.056.397-.167s.308-.248.477-.409.333-.32.489-.477c.016-.016.033-.025.05-.025.016 0 .033.006.049.019.016.012.025.027.025.043 0 .132-.079.299-.236.502a4.105 4.105 0 0 1-.589.607 4.515 4.515 0 0 1-.724.514c-.248.14-.467.21-.657.21Zm2.503-6.529a.386.386 0 0 1-.31-.149.51.51 0 0 1-.124-.334c0-.198.066-.374.198-.527a.627.627 0 0 1 .496-.229c.132 0 .235.056.309.167s.111.233.111.366a.709.709 0 0 1-.198.49.63.63 0 0 1-.483.216ZM33.402 101.048a.622.622 0 0 1-.297-.08.746.746 0 0 1-.242-.204.432.432 0 0 1-.092-.26c0-.297.099-.642.297-1.034.198-.392.474-.805.83-1.239.355-.434.764-.853 1.227-1.258.446-.388.809-.679 1.09-.873s.487-.291.62-.291.248.058.347.174c.116.149.168.216.156.204-.013-.013-.015-.019-.007-.019a.06.06 0 0 0 .044-.019.147.147 0 0 0 .03-.056l.211-.36c.025-.041.025-.045 0-.013.049-.082.099-.124.149-.124.074 0 .149.012.223.037a.515.515 0 0 1 .18.099c.045.041.068.083.068.124s-.029.144-.086.31l-1.388 3.679c-.107.281-.054.421.161.421.149 0 .328-.072.539-.217a2.37 2.37 0 0 0 .551-.526.342.342 0 0 1 .055-.044.12.12 0 0 1 .056-.019c.033 0 .055.011.068.031a.224.224 0 0 1 .018.105c0 .058-.058.172-.173.34a3.108 3.108 0 0 1-.36.44c-.232.215-.465.38-.7.496a1.5 1.5 0 0 1-.651.173.486.486 0 0 1-.248-.074c-.082-.049-.15-.111-.204-.186s-.08-.149-.08-.223a.63.63 0 0 1 .074-.285c-.034.074-.035.074-.006 0a21.255 21.255 0 0 1 .378-.843c.082-.173.153-.326.211-.458.041-.091.06-.159.055-.204s-.031-.039-.08.019a19.997 19.997 0 0 1-1.295 1.338c-.36.33-.676.566-.948.706s-.532.21-.78.21Zm.694-.78c.181 0 .452-.15.811-.452.359-.302.766-.721 1.22-1.258.314-.363.562-.698.743-1.003s.272-.533.272-.681c0-.066-.054-.144-.161-.235a.672.672 0 0 0-.161-.099.389.389 0 0 0-.149-.037c-.149 0-.353.074-.614.223s-.498.326-.712.533a7.53 7.53 0 0 0-.781.892c-.247.331-.448.649-.601.954s-.229.554-.229.743c0 .124.033.225.099.304a.321.321 0 0 0 .26.118ZM39.498 101.048c-.108 0-.227-.058-.36-.173s-.199-.239-.199-.372c0-.05.009-.099.025-.149l2.354-6.703c.041-.115.073-.227.092-.334.021-.107.031-.215.031-.322 0-.074-.039-.145-.118-.211s-.175-.111-.291-.136c-.082-.016-.149-.039-.198-.068s-.074-.06-.074-.093c0-.025.002-.045.006-.062s.012-.033.025-.05c.012-.016.027-.025.043-.025.156-.041.347-.081.57-.118s.432-.07.626-.099c.194-.029.324-.043.391-.043.041 0 .076.014.105.043.029.029.043.076.043.143a.683.683 0 0 1-.025.167l-.049.179-2.503 7.137a.847.847 0 0 0-.049.192 1.171 1.171 0 0 0-.013.167c0 .132.041.198.124.198.115 0 .258-.064.427-.192a3.69 3.69 0 0 0 .502-.465c.165-.181.297-.343.397-.483.049-.066.107-.13.173-.192.067-.062.116-.093.149-.093s.052.015.056.044.006.068.006.118a.992.992 0 0 1-.167.52 2.817 2.817 0 0 1-.44.539c-.182.178-.376.337-.582.477s-.405.252-.595.334c-.19.083-.352.124-.483.124ZM43.288 101.048c-.14 0-.256-.045-.347-.136s-.137-.186-.137-.285c0-.033.003-.066.006-.099a.315.315 0 0 1 .031-.099 22.67 22.67 0 0 0 .856-1.939c.231-.607.437-1.138.619-1.592.033-.099.013-.149-.061-.149-.041 0-.122.023-.242.068s-.245.105-.378.18-.248.149-.347.223c-.041.033-.082.041-.124.025-.041-.016-.062-.045-.062-.087 0-.041.031-.101.093-.179s.149-.167.26-.267a4.64 4.64 0 0 1 .403-.316c.156-.111.328-.223.514-.334s.382-.213.589-.304a.219.219 0 0 1 .223.025.592.592 0 0 1 .18.186c.045.074.06.132.043.173l-1.512 3.581a.751.751 0 0 0-.086.359c0 .058.022.097.067.118a.312.312 0 0 0 .13.031c.116 0 .248-.056.397-.167s.308-.248.477-.409c.169-.161.332-.32.489-.477.016-.016.033-.025.049-.025s.033.006.05.019c.016.012.024.027.024.043 0 .132-.079.299-.235.502a4.156 4.156 0 0 1-.589.607 4.478 4.478 0 0 1-.725.514c-.247.14-.467.21-.657.21Zm2.503-6.529a.382.382 0 0 1-.309-.149.505.505 0 0 1-.124-.334c0-.198.066-.374.198-.527a.626.626 0 0 1 .495-.229c.132 0 .236.056.31.167s.111.233.111.366a.71.71 0 0 1-.199.49.63.63 0 0 1-.483.216ZM46.559 101.048c-.181 0-.339-.051-.471-.155s-.198-.233-.198-.39c0-.19.043-.332.13-.427.087-.095.159-.143.217-.143s.118.023.18.068.13.101.205.167c.091.066.192.13.303.192s.258.093.44.093c.223 0 .4-.08.532-.242s.202-.332.211-.514c0-.181-.031-.378-.093-.589a2.986 2.986 0 0 0-.266-.626c-.107-.198-.196-.386-.266-.563s-.105-.328-.105-.452c0-.239.064-.465.192-.675.128-.211.285-.395.471-.551s.37-.279.551-.366.327-.13.434-.13.214.031.322.093c.107.062.195.132.266.21.07.079.105.147.105.204 0 .05-.025.11-.074.18-.05.07-.108.134-.174.192-.067.057-.124.086-.174.086-.041 0-.082-.02-.124-.062l-.137-.137a.893.893 0 0 0-.18-.136.548.548 0 0 0-.278-.062.453.453 0 0 0-.347.167.637.637 0 0 0-.149.44c0 .066.023.169.068.309.046.141.099.285.162.434.061.149.121.281.179.396.091.165.175.374.254.626.079.252.118.473.118.663 0 .248-.072.475-.216.681a2.078 2.078 0 0 1-.564.539 2.904 2.904 0 0 1-1.523.477ZM50.573 101.048a.427.427 0 0 1-.223-.08.814.814 0 0 1-.204-.186.325.325 0 0 1-.081-.192c0-.14.019-.261.056-.36s.076-.21.118-.334l1.177-3.308c.016-.057.01-.097-.018-.118a.183.183 0 0 0-.105-.031l-.496-.025c-.107-.008-.171-.031-.192-.068s-.031-.072-.031-.105c0-.016.021-.048.062-.093s.092-.091.155-.137a.341.341 0 0 1 .205-.068h.446c.091 0 .153-.015.186-.044s.07-.089.111-.18l.297-.607c.033-.066.095-.143.186-.229s.184-.163.279-.229c.094-.066.162-.099.204-.099.066 0 .107.046.124.137s.009.178-.024.26l-.322.83c-.016.058-.01.095.019.111a.307.307 0 0 0 .142.025c.165 0 .334.013.508.037.174.025.314.045.422.062.131.025.213.051.241.08s.043.064.043.105c0 .016-.016.043-.049.08s-.095.06-.186.068c-.181.008-.355.019-.52.031-.165.013-.339.023-.52.031a.64.64 0 0 0-.279.062.227.227 0 0 0-.105.124l-1.103 3.048c-.033.099-.049.186-.049.261s.022.132.068.173c.045.041.113.062.204.062.116 0 .24-.041.372-.124.132-.083.261-.178.385-.285a5.4 5.4 0 0 0 .309-.285c.091-.091.169-.132.236-.124.066.008.099.037.099.087a.396.396 0 0 1-.061.192c-.041.07-.095.143-.162.217a5.16 5.16 0 0 1-.861.737 4.243 4.243 0 0 1-.8.427.775.775 0 0 1-.26.062ZM56.941 101.048a.469.469 0 0 1-.347-.136c-.092-.091-.137-.186-.137-.285 0-.033.002-.066.006-.099a.315.315 0 0 1 .031-.099c.339-.686.623-1.332.855-1.939.231-.607.437-1.138.62-1.592.033-.099.012-.149-.062-.149a.885.885 0 0 0-.241.068 3.33 3.33 0 0 0-.726.403c-.041.033-.083.041-.124.025-.041-.016-.062-.045-.062-.087 0-.041.031-.101.092-.179.062-.079.149-.167.26-.267.111-.099.246-.204.403-.316.157-.111.328-.223.514-.334s.382-.213.589-.304a.219.219 0 0 1 .223.025.581.581 0 0 1 .18.186c.046.074.06.132.043.173l-1.512 3.581a.821.821 0 0 0-.086.359c0 .058.022.097.068.118a.305.305 0 0 0 .13.031c.116 0 .248-.056.397-.167s.308-.248.477-.409.333-.32.489-.477c.016-.016.033-.025.05-.025.016 0 .033.006.049.019.016.012.025.027.025.043 0 .132-.079.299-.236.502a4.105 4.105 0 0 1-.589.607 4.515 4.515 0 0 1-.724.514c-.248.14-.467.21-.657.21Zm2.503-6.529a.386.386 0 0 1-.31-.149.51.51 0 0 1-.124-.334c0-.198.066-.374.198-.527a.627.627 0 0 1 .496-.229c.132 0 .235.056.309.167s.111.233.111.366a.709.709 0 0 1-.198.49.63.63 0 0 1-.483.216ZM60.484 101.074a.225.225 0 0 1-.143-.056.524.524 0 0 1-.186-.316.272.272 0 0 1 .019-.174l1.436-3.519c.15-.363.157-.545.025-.545-.082 0-.169.01-.26.031-.091.021-.19.073-.297.155s-.227.21-.36.384c-.033.033-.068.048-.105.043-.037-.004-.064-.035-.08-.093 0-.05.015-.114.043-.192a2.415 2.415 0 0 1 .216-.427c.124-.19.291-.338.502-.446.211-.107.456-.165.737-.173a.47.47 0 0 1 .248.068c.074.046.13.11.167.192s.035.173-.006.273l-.818 2.106c-.025.058-.019.091.018.099.037.009.068-.008.093-.049.339-.578.684-1.068 1.034-1.468s.688-.704 1.009-.91c.322-.207.608-.31.855-.31.174 0 .324.06.453.18.128.12.21.281.247.483s-.002.436-.118.7l-1.14 2.701c-.124.297-.103.446.062.446.099 0 .221-.037.366-.111s.291-.163.44-.266.278-.198.39-.285c.111-.086.184-.146.217-.179.009-.008.015-.013.019-.013h.018c.025 0 .048.01.068.031s.031.048.031.08a.303.303 0 0 1-.049.173 5.715 5.715 0 0 1-.688.694c-.244.207-.495.37-.755.49-.261.12-.523.179-.787.179a.383.383 0 0 1-.223-.08c-.074-.054-.13-.122-.167-.204s-.035-.169.006-.26c.239-.554.48-1.104.724-1.654.244-.549.473-1.101.688-1.654.132-.338.178-.576.137-.712-.041-.137-.12-.209-.236-.217a.569.569 0 0 0-.321.093 2.44 2.44 0 0 0-.422.322 5.413 5.413 0 0 0-.508.551 6.61 6.61 0 0 0-.396.539 43.68 43.68 0 0 0-.557.842 41.122 41.122 0 0 0-1.265 2.076c-.074.132-.14.229-.198.291-.058.062-.12.093-.186.093ZM69.516 101.048a.622.622 0 0 1-.297-.08.746.746 0 0 1-.242-.204.432.432 0 0 1-.092-.26c0-.297.099-.642.297-1.034.198-.392.474-.805.83-1.239.355-.434.764-.853 1.227-1.258.446-.388.809-.679 1.09-.873s.487-.291.62-.291.248.058.347.174c.116.149.168.216.156.204-.013-.013-.015-.019-.007-.019a.06.06 0 0 0 .044-.019.147.147 0 0 0 .03-.056l.211-.36c.025-.041.025-.045 0-.013.049-.082.099-.124.149-.124.074 0 .149.012.223.037a.515.515 0 0 1 .18.099c.045.041.068.083.068.124s-.029.144-.086.31l-1.388 3.679c-.107.281-.054.421.161.421.149 0 .328-.072.539-.217a2.37 2.37 0 0 0 .551-.526.342.342 0 0 1 .055-.044.12.12 0 0 1 .056-.019c.033 0 .055.011.068.031a.224.224 0 0 1 .018.105c0 .058-.058.172-.173.34a3.108 3.108 0 0 1-.36.44c-.232.215-.465.38-.7.496a1.5 1.5 0 0 1-.651.173.486.486 0 0 1-.248-.074c-.082-.049-.15-.111-.204-.186s-.08-.149-.08-.223a.63.63 0 0 1 .074-.285c-.034.074-.035.074-.006 0a21.255 21.255 0 0 1 .378-.843c.082-.173.153-.326.211-.458.041-.091.06-.159.055-.204s-.031-.039-.08.019a19.997 19.997 0 0 1-1.295 1.338c-.36.33-.676.566-.948.706s-.532.21-.78.21Zm.694-.78c.181 0 .452-.15.811-.452.359-.302.766-.721 1.22-1.258.314-.363.562-.698.743-1.003s.272-.533.272-.681c0-.066-.054-.144-.161-.235a.672.672 0 0 0-.161-.099.389.389 0 0 0-.149-.037c-.149 0-.353.074-.614.223s-.498.326-.712.533a7.53 7.53 0 0 0-.781.892c-.247.331-.448.649-.601.954s-.229.554-.229.743c0 .124.033.225.099.304a.321.321 0 0 0 .26.118ZM76.032 101.048a.748.748 0 0 1-.582-.248c-.149-.165-.223-.38-.223-.644 0-.314.068-.665.205-1.053a6.68 6.68 0 0 1 .557-1.177c.235-.396.502-.764.799-1.103.322-.363.648-.646.978-.849.33-.202.628-.303.893-.303.107 0 .194.014.26.043.066.029.214.118.446.267l.291.179c.02.013.022.019.006.019.024 0 .045-.029.061-.086l.831-2.788a.747.747 0 0 0 .031-.118.304.304 0 0 1 .012-.062.124.124 0 0 0 .006-.037v-.031a.306.306 0 0 0-.074-.217.721.721 0 0 0-.272-.155c-.181-.066-.29-.105-.322-.118-.033-.012-.049-.031-.049-.056 0-.057.033-.103.099-.136.067-.033.174-.062.322-.087.124-.016.25-.035.378-.056.129-.02.246-.037.353-.049a20.125 20.125 0 0 1 .421-.044c.099 0 .149.058.149.174a.662.662 0 0 1-.012.13 1.77 1.77 0 0 1-.037.155l-2.007 6.95c-.017.066-.031.13-.043.192a.933.933 0 0 0-.019.192c0 .182.058.273.174.273a.852.852 0 0 0 .384-.118 2.65 2.65 0 0 0 .831-.737c.016-.025.033-.041.049-.049s.033-.013.049-.013c.067 0 .091.033.074.099 0 .091-.045.207-.136.347-.092.14-.211.287-.36.44a4.6 4.6 0 0 1-.477.427 3.3 3.3 0 0 1-.489.322.894.894 0 0 1-.397.124.473.473 0 0 1-.26-.08.674.674 0 0 1-.205-.21.497.497 0 0 1-.08-.267c0-.041.016-.149.05-.322.016-.091.041-.204.074-.341.033-.136.063-.268.092-.396l.062-.279a.851.851 0 0 0-.006.025c.016-.066.014-.114-.007-.143s-.043-.022-.067.019c-.57.719-1.07 1.231-1.499 1.537-.43.305-.868.458-1.314.458Zm.459-.582c.223 0 .467-.081.731-.242.264-.161.526-.376.786-.644s.5-.564.718-.886a5.27 5.27 0 0 0 .527-.967c.131-.322.198-.619.198-.892 0-.239-.054-.427-.161-.564a.551.551 0 0 0-.459-.204c-.19 0-.404.091-.644.273-.24.182-.483.421-.731.719s-.477.622-.688.973c-.21.351-.379.7-.508 1.047-.128.347-.192.652-.192.916 0 .182.031.306.093.372.061.067.171.099.328.099ZM83.157 101.048c-.19 0-.355-.083-.496-.248a1.296 1.296 0 0 1-.278-.62 1.336 1.336 0 0 1 .068-.731l.805-2.144c.067-.165.104-.299.111-.402.009-.103-.037-.155-.136-.155-.058 0-.159.062-.303.186a5.359 5.359 0 0 0-.416.397c-.041.049-.074.079-.099.087a.214.214 0 0 1-.062.012c-.058 0-.086-.02-.086-.062 0-.05.01-.103.03-.161a.956.956 0 0 1 .118-.21c.149-.207.299-.391.452-.551.153-.161.299-.297.44-.409.14-.111.27-.196.39-.254a.748.748 0 0 1 .316-.087c.066 0 .128.025.186.074s.101.11.13.18c.029.07.031.146.007.229L83.218 99.4c-.091.281-.103.508-.037.681.067.173.202.26.409.26.298 0 .589-.085.874-.254.285-.169.539-.396.762-.681.223-.285.4-.601.532-.948s.199-.698.199-1.053a1.292 1.292 0 0 0-.297-.793c-.058-.066-.098-.132-.118-.198s-.03-.136-.03-.21.037-.151.111-.229a.953.953 0 0 1 .278-.198.77.77 0 0 1 .34-.08c.091 0 .174.07.248.211s.111.355.111.644c0 .364-.039.723-.118 1.078s-.202.704-.372 1.047-.398.679-.688 1.009c-.388.455-.779.795-1.171 1.022-.392.227-.757.34-1.096.34ZM87.443 101.048a.625.625 0 0 1-.297-.08.732.732 0 0 1-.241-.204.427.427 0 0 1-.093-.26c0-.297.099-.642.297-1.034.199-.392.475-.805.831-1.239a10.63 10.63 0 0 1 1.226-1.258c.446-.388.81-.679 1.091-.873.28-.194.487-.291.619-.291s.248.058.347.174c.116.149.167.216.155.204-.012-.013-.015-.019-.006-.019a.057.057 0 0 0 .043-.019.162.162 0 0 0 .031-.056l.211-.36c.024-.041.024-.045 0-.013.049-.082.099-.124.149-.124.074 0 .149.012.223.037a.515.515 0 0 1 .18.099c.045.041.067.083.067.124s-.029.144-.086.31l-1.388 3.679c-.107.281-.054.421.162.421.149 0 .328-.072.538-.217a2.35 2.35 0 0 0 .551-.526.311.311 0 0 1 .056-.044.117.117 0 0 1 .055-.019c.033 0 .056.011.068.031a.21.21 0 0 1 .019.105c0 .058-.058.172-.174.34a3.04 3.04 0 0 1-.36.44c-.231.215-.464.38-.7.496a1.496 1.496 0 0 1-.65.173.48.48 0 0 1-.248-.074c-.083-.049-.151-.111-.205-.186s-.08-.149-.08-.223c0-.091.025-.186.074-.285-.033.074-.035.074-.006 0 .029-.074.079-.19.149-.347s.147-.322.229-.496c.083-.173.153-.326.211-.458a.465.465 0 0 0 .056-.204c-.004-.045-.031-.039-.081.019a19.75 19.75 0 0 1-1.295 1.338c-.36.33-.675.566-.947.706-.273.14-.533.21-.781.21Zm.693-.78c.181 0 .452-.15.811-.452s.767-.721 1.22-1.258c.314-.363.562-.698.743-1.003.182-.305.273-.533.273-.681 0-.066-.054-.144-.162-.235a.653.653 0 0 0-.161-.099.385.385 0 0 0-.149-.037c-.149 0-.353.074-.614.223s-.497.326-.712.533a7.617 7.617 0 0 0-.78.892 6.288 6.288 0 0 0-.601.954c-.153.305-.23.554-.23.743 0 .124.034.225.099.304a.324.324 0 0 0 .26.118ZM93.625 101.074a.223.223 0 0 1-.142-.056.535.535 0 0 1-.185-.316.265.265 0 0 1 .018-.174l1.437-3.519c.149-.363.156-.545.025-.545-.083 0-.169.01-.26.031a.796.796 0 0 0-.297.155c-.108.083-.227.21-.36.384-.034.033-.068.048-.105.043-.037-.004-.064-.035-.08-.093 0-.05.014-.114.043-.192a2.415 2.415 0 0 1 .216-.427c.124-.19.291-.338.501-.446.211-.107.456-.165.737-.173a.47.47 0 0 1 .248.068c.074.046.13.11.168.192s.035.173-.006.273l-.818 2.106c-.024.058-.018.091.019.099.037.009.068-.008.092-.049a9.628 9.628 0 0 1 1.034-1.468c.352-.401.688-.704 1.01-.91s.607-.31.855-.31c.174 0 .324.06.452.18s.211.281.248.483-.003.436-.118.7l-1.14 2.701c-.124.297-.104.446.062.446.099 0 .22-.037.365-.111.145-.074.291-.163.44-.266s.279-.198.391-.285c.111-.086.184-.146.217-.179.008-.008.014-.013.018-.013h.019c.025 0 .048.01.068.031.02.021.031.048.031.08a.303.303 0 0 1-.05.173 5.708 5.708 0 0 1-.687.694c-.244.207-.496.37-.756.49s-.523.179-.786.179a.383.383 0 0 1-.223-.08c-.074-.054-.13-.122-.168-.204s-.035-.169.006-.26c.239-.554.481-1.104.725-1.654.244-.549.473-1.101.688-1.654.131-.338.177-.576.136-.712-.041-.137-.119-.209-.235-.217a.574.574 0 0 0-.322.093 2.4 2.4 0 0 0-.421.322 6.571 6.571 0 0 0-.905 1.09 51.023 51.023 0 0 0-1.195 1.858c-.22.36-.428.713-.626 1.06a1.548 1.548 0 0 1-.199.291c-.058.062-.119.093-.186.093ZM100.725 101.061a.827.827 0 0 1-.465-.167c-.161-.111-.297-.264-.409-.458s-.167-.419-.167-.675c.008-.298.058-.626.149-.985s.223-.716.397-1.072c.173-.355.39-.681.65-.979s.56-.535.899-.713a2.407 2.407 0 0 1 1.139-.266c.224 0 .392.039.508.118.116.079.174.172.174.279a.81.81 0 0 1-.118.403c-.079.137-.163.204-.254.204a.208.208 0 0 1-.168-.086 1.305 1.305 0 0 1-.13-.211 1.217 1.217 0 0 0-.186-.254c-.074-.078-.182-.118-.322-.118-.198 0-.404.12-.62.359-.214.24-.415.545-.601.917s-.337.764-.452 1.177a4.205 4.205 0 0 0-.174 1.127c0 .273.054.458.161.557a.615.615 0 0 0 .434.149c.264 0 .475-.051.632-.155.157-.103.314-.229.471-.378.058-.058.101-.099.13-.124a.172.172 0 0 1 .118-.037c.066 0 .099.054.099.161 0 .066-.051.165-.155.297a2.72 2.72 0 0 1-1.029.781 1.765 1.765 0 0 1-.712.149ZM104.626 101.061a.881.881 0 0 1-.526-.198 1.607 1.607 0 0 1-.44-.502 1.18 1.18 0 0 1-.174-.589c0-.413.085-.853.254-1.319s.403-.904.7-1.314c.297-.409.642-.743 1.034-1.003s.807-.39 1.245-.39c.29 0 .514.06.675.18.162.12.242.287.242.502 0 .256-.08.479-.242.669-.161.19-.378.353-.65.49-.273.136-.576.25-.911.34-.334.091-.675.169-1.022.235a.566.566 0 0 0-.118.031c-.029.012-.052.043-.068.093-.058.181-.116.38-.173.595a2.333 2.333 0 0 0-.087.607c0 .289.056.512.168.669s.274.235.489.235c.297 0 .55-.074.756-.223.206-.149.375-.297.507-.446.083-.091.157-.137.223-.137.083 0 .124.041.124.124v.043a.08.08 0 0 1-.025.056 3.028 3.028 0 0 1-.557.688 2.255 2.255 0 0 1-.663.421 2.014 2.014 0 0 1-.762.143Zm.274-3.184c.091 0 .245-.026.464-.08.219-.054.449-.14.688-.26s.444-.268.614-.446a.894.894 0 0 0 .254-.638c0-.107-.029-.2-.087-.279a.29.29 0 0 0-.248-.118c-.173 0-.361.072-.563.216a3.572 3.572 0 0 0-.576.521 4.392 4.392 0 0 0-.453.588c-.119.19-.18.331-.18.421 0 .05.029.074.087.074ZM108.529 101.048a.748.748 0 0 1-.582-.248c-.149-.165-.223-.38-.223-.644 0-.314.068-.665.205-1.053a6.68 6.68 0 0 1 .557-1.177c.235-.396.502-.764.799-1.103.322-.363.648-.646.978-.849.33-.202.628-.303.893-.303.107 0 .194.014.26.043.066.029.214.118.446.267l.291.179c.02.013.022.019.006.019.024 0 .045-.029.061-.086l.831-2.788a.747.747 0 0 0 .031-.118.304.304 0 0 1 .012-.062.124.124 0 0 0 .006-.037v-.031a.306.306 0 0 0-.074-.217.721.721 0 0 0-.272-.155c-.181-.066-.29-.105-.322-.118-.033-.012-.049-.031-.049-.056 0-.057.033-.103.099-.136.067-.033.174-.062.322-.087.124-.016.25-.035.378-.056.129-.02.246-.037.353-.049a20.125 20.125 0 0 1 .421-.044c.099 0 .149.058.149.174a.662.662 0 0 1-.012.13 1.77 1.77 0 0 1-.037.155l-2.007 6.95c-.017.066-.031.13-.043.192a.933.933 0 0 0-.019.192c0 .182.058.273.174.273a.852.852 0 0 0 .384-.118 2.65 2.65 0 0 0 .831-.737c.016-.025.033-.041.049-.049s.033-.013.049-.013c.067 0 .091.033.074.099 0 .091-.045.207-.136.347-.092.14-.211.287-.36.44a4.6 4.6 0 0 1-.477.427 3.3 3.3 0 0 1-.489.322.894.894 0 0 1-.397.124.473.473 0 0 1-.26-.08.674.674 0 0 1-.205-.21.497.497 0 0 1-.08-.267c0-.041.016-.149.05-.322.016-.091.041-.204.074-.341.033-.136.063-.268.092-.396l.062-.279a.851.851 0 0 0-.006.025c.016-.066.014-.114-.007-.143s-.043-.022-.067.019c-.57.719-1.07 1.231-1.499 1.537-.43.305-.868.458-1.314.458Zm.459-.582c.223 0 .467-.081.731-.242.264-.161.526-.376.786-.644s.5-.564.718-.886a5.27 5.27 0 0 0 .527-.967c.131-.322.198-.619.198-.892 0-.239-.054-.427-.161-.564a.551.551 0 0 0-.459-.204c-.19 0-.404.091-.644.273-.24.182-.483.421-.731.719s-.477.622-.688.973c-.21.351-.379.7-.508 1.047-.128.347-.192.652-.192.916 0 .182.031.306.093.372.061.067.171.099.328.099ZM118.118 101.048a.902.902 0 0 1-.557-.198 1.39 1.39 0 0 1-.415-.521 1.541 1.541 0 0 1-.156-.681c0-.388.077-.807.23-1.257.152-.45.366-.875.638-1.276s.589-.729.948-.985.745-.384 1.158-.384.733.14.96.421.34.628.34 1.041c0 .372-.074.779-.223 1.22a4.933 4.933 0 0 1-.638 1.257 3.718 3.718 0 0 1-.991.979 2.283 2.283 0 0 1-1.295.384Zm.198-.371c.199 0 .398-.086.601-.26.202-.173.396-.401.582-.681.186-.28.351-.59.495-.929s.26-.677.347-1.016c.087-.339.13-.649.13-.929 0-.215-.035-.392-.105-.533-.07-.14-.213-.21-.428-.21-.19 0-.385.079-.589.235-.202.157-.396.367-.582.632s-.353.56-.502.886-.266.665-.353 1.016c-.086.351-.13.692-.13 1.022 0 .272.048.469.143.589s.225.179.39.179ZM122.356 101.086a.28.28 0 0 1-.137-.043c-.049-.029-.091-.066-.124-.111s-.049-.093-.049-.143c0-.099.026-.225.08-.378l.204-.576 1.14-2.974a.743.743 0 0 0 .056-.297c-.004-.091-.048-.136-.13-.136-.116 0-.229.014-.34.043s-.196.06-.254.093c-.049.033-.097.039-.143.019-.045-.02-.068-.06-.068-.118 0-.066.031-.14.093-.223a1.04 1.04 0 0 1 .254-.235c.099-.074.217-.136.353-.186.137-.05.279-.074.428-.074.231 0 .378.058.44.173.061.116.07.271.024.465a4.795 4.795 0 0 1-.216.663l-.558 1.4c-.033.058-.022.095.031.111.054.017.093.004.118-.037.33-.57.662-1.067.997-1.493.334-.425.646-.756.935-.991.289-.235.528-.353.718-.353.215 0 .366.062.453.186a.74.74 0 0 1 .13.433c0 .149-.027.302-.08.458s-.128.287-.223.39-.2.155-.316.155c-.066 0-.116-.039-.149-.118a.83.83 0 0 1-.049-.316.697.697 0 0 0-.049-.291c-.034-.07-.095-.105-.186-.105-.083 0-.193.054-.328.161-.137.108-.308.293-.514.557a27.343 27.343 0 0 0-.837 1.221c-.169.26-.336.525-.501.793a35.007 35.007 0 0 0-.911 1.604c-.095.181-.192.272-.291.272ZM127.225 101.048a.422.422 0 0 1-.223-.08.802.802 0 0 1-.205-.186.323.323 0 0 1-.08-.192c0-.14.018-.261.055-.36s.077-.21.118-.334l1.177-3.308c.016-.057.01-.097-.019-.118a.18.18 0 0 0-.105-.031l-.495-.025c-.108-.008-.172-.031-.192-.068a.213.213 0 0 1-.031-.105c0-.016.02-.048.061-.093s.093-.091.156-.137a.338.338 0 0 1 .204-.068h.446c.091 0 .153-.015.186-.044s.07-.089.111-.18l.297-.607c.033-.066.095-.143.186-.229s.184-.163.279-.229.163-.099.205-.099c.066 0 .107.046.124.137s.008.178-.025.26l-.322.83c-.016.058-.01.095.019.111a.31.31 0 0 0 .143.025c.165 0 .334.013.508.037.173.025.314.045.421.062.132.025.213.051.242.08a.143.143 0 0 1 .043.105c0 .016-.016.043-.05.08-.033.037-.095.06-.186.068-.181.008-.355.019-.52.031-.165.013-.339.023-.52.031a.635.635 0 0 0-.278.062.227.227 0 0 0-.105.124l-1.103 3.048c-.033.099-.049.186-.049.261s.022.132.067.173c.046.041.114.062.205.062.116 0 .239-.041.372-.124s.26-.178.384-.285c.124-.107.227-.202.31-.285.091-.091.169-.132.235-.124.067.008.099.037.099.087a.388.388 0 0 1-.062.192c-.041.07-.095.143-.161.217a5.16 5.16 0 0 1-.862.737 4.235 4.235 0 0 1-.799.427.78.78 0 0 1-.26.062ZM130.619 101.098a.149.149 0 0 1-.111-.05.302.302 0 0 1-.074-.124.485.485 0 0 1-.025-.149c0-.124.015-.248.044-.372.029-.124.067-.277.118-.458l1.747-5.984c.041-.14.083-.295.124-.465.041-.169.062-.295.062-.378 0-.083-.052-.144-.155-.186a6.37 6.37 0 0 0-.303-.111.992.992 0 0 1-.155-.056c-.046-.02-.068-.048-.068-.08s.012-.064.037-.093a.437.437 0 0 1 .173-.093c.067-.025.159-.058.279-.099l.384-.13c.137-.045.26-.083.372-.111s.188-.043.23-.043c.041 0 .086.004.136.013.05.008.074.045.074.111s-.006.124-.018.173-.027.103-.043.161l-1.685 5.823c-.016.058-.015.086.006.086s.043-.016.068-.049c.363-.537.739-1.014 1.128-1.431a6.94 6.94 0 0 1 1.102-.985c.347-.24.645-.36.893-.36.272 0 .48.091.626.273a.989.989 0 0 1 .217.632c0 .421-.077.867-.23 1.338-.153.471-.353.921-.601 1.35s-.516.797-.805 1.103a2.656 2.656 0 0 1-.223.192 2.577 2.577 0 0 1-.347.229 3.362 3.362 0 0 1-.403.192c-.137.054-.263.08-.378.08a.408.408 0 0 1-.205-.074.689.689 0 0 1-.198-.186.35.35 0 0 1-.081-.198c0-.041.016-.091.05-.149a.557.557 0 0 1 .124-.149.233.233 0 0 1 .149-.062c.074 0 .138.015.192.043a.628.628 0 0 1 .143.105c.05.041.099.079.149.111.05.033.107.05.174.05.14 0 .289-.083.446-.248.157-.165.308-.384.452-.656s.275-.572.391-.898.208-.655.278-.985c.071-.331.105-.636.105-.917 0-.19-.039-.337-.118-.44s-.196-.155-.353-.155c-.182 0-.386.089-.614.266s-.462.411-.706.7-.481.599-.713.929c-.231.331-.442.653-.632.967-.19.314-.342.582-.458.805l-.465.892c-.103.198-.204.297-.303.297ZM137.434 101.048a.902.902 0 0 1-.558-.198 1.41 1.41 0 0 1-.415-.521 1.554 1.554 0 0 1-.155-.681c0-.388.076-.807.229-1.257a5.31 5.31 0 0 1 .638-1.276c.273-.401.589-.729.948-.985.36-.256.746-.384 1.159-.384s.733.14.96.421c.226.281.34.628.34 1.041 0 .372-.074.779-.223 1.22a4.933 4.933 0 0 1-.638 1.257 3.733 3.733 0 0 1-.991.979 2.285 2.285 0 0 1-1.295.384Zm.197-.371c.198 0 .398-.086.601-.26.202-.173.397-.401.582-.681.186-.28.351-.59.495-.929a7.01 7.01 0 0 0 .347-1.016c.086-.339.13-.649.13-.929 0-.215-.035-.392-.105-.533-.071-.14-.213-.21-.428-.21-.19 0-.386.079-.589.235s-.397.367-.582.632-.353.56-.501.886-.267.665-.353 1.016c-.086.351-.13.692-.13 1.022 0 .272.048.469.143.589s.226.179.391.179ZM141.794 101.048c-.24 0-.434-.083-.582-.248s-.223-.38-.223-.644c0-.314.068-.665.204-1.053.137-.388.322-.78.558-1.177.235-.396.501-.764.799-1.103.322-.363.648-.646.979-.849.33-.202.627-.303.892-.303.107 0 .194.014.26.043.066.029.214.118.446.267l.291.179c.021.013.022.019.006.019.025 0 .046-.029.062-.086l.83-2.788c.016-.049.027-.089.031-.118s.009-.05.013-.062c.003-.013.006-.025.006-.037v-.031a.31.31 0 0 0-.074-.217.735.735 0 0 0-.273-.155c-.181-.066-.289-.105-.321-.118-.034-.012-.05-.031-.05-.056 0-.057.033-.103.099-.136.066-.033.174-.062.322-.087.124-.016.25-.035.378-.056.128-.02.245-.037.353-.049a20.125 20.125 0 0 1 .421-.044c.099 0 .149.058.149.174a.749.749 0 0 1-.012.13 2.224 2.224 0 0 1-.037.155l-2.008 6.95a4.26 4.26 0 0 0-.043.192 1.008 1.008 0 0 0-.018.192c0 .182.057.273.173.273a.855.855 0 0 0 .385-.118 2.595 2.595 0 0 0 .83-.737.133.133 0 0 1 .049-.049.12.12 0 0 1 .05-.013c.066 0 .091.033.074.099 0 .091-.046.207-.137.347s-.211.287-.36.44a4.6 4.6 0 0 1-.477.427 3.25 3.25 0 0 1-.489.322.886.886 0 0 1-.397.124.475.475 0 0 1-.26-.08.682.682 0 0 1-.204-.21.497.497 0 0 1-.08-.267 5.855 5.855 0 0 1 .123-.663 26.703 26.703 0 0 0 .148-.65c.016-.066.015-.114-.006-.143s-.043-.022-.068.019c-.57.719-1.07 1.231-1.499 1.537-.43.305-.867.458-1.313.458Zm.458-.582c.223 0 .467-.081.731-.242.264-.161.526-.376.786-.644s.5-.564.719-.886c.219-.322.394-.644.526-.967a2.37 2.37 0 0 0 .199-.892c0-.239-.054-.427-.162-.564a.55.55 0 0 0-.458-.204c-.19 0-.405.091-.645.273a4.583 4.583 0 0 0-.731.719 7.715 7.715 0 0 0-.687.973 6.2 6.2 0 0 0-.508 1.047c-.128.347-.192.652-.192.916 0 .182.031.306.092.372.062.067.172.099.328.099ZM148.781 101.048a.902.902 0 0 1-.557-.198 1.39 1.39 0 0 1-.415-.521 1.541 1.541 0 0 1-.156-.681c0-.388.077-.807.23-1.257.152-.45.366-.875.638-1.276s.589-.729.948-.985.745-.384 1.158-.384.733.14.96.421.34.628.34 1.041c0 .372-.074.779-.223 1.22a4.933 4.933 0 0 1-.638 1.257 3.718 3.718 0 0 1-.991.979 2.283 2.283 0 0 1-1.295.384Zm.198-.371c.199 0 .398-.086.601-.26.202-.173.396-.401.582-.681.186-.28.351-.59.495-.929s.26-.677.347-1.016c.087-.339.13-.649.13-.929 0-.215-.035-.392-.105-.533-.07-.14-.213-.21-.428-.21-.19 0-.385.079-.589.235-.202.157-.396.367-.582.632s-.353.56-.502.886-.266.665-.353 1.016c-.086.351-.13.692-.13 1.022 0 .272.048.469.143.589s.225.179.39.179ZM153.056 101.074a.225.225 0 0 1-.143-.056.524.524 0 0 1-.186-.316.272.272 0 0 1 .019-.174l1.436-3.519c.15-.363.157-.545.025-.545-.082 0-.169.01-.26.031-.091.021-.19.073-.297.155s-.227.21-.36.384c-.033.033-.068.048-.105.043-.037-.004-.064-.035-.08-.093 0-.05.015-.114.043-.192a2.415 2.415 0 0 1 .216-.427c.124-.19.291-.338.502-.446.211-.107.456-.165.737-.173a.47.47 0 0 1 .248.068c.074.046.13.11.167.192s.035.173-.006.273l-.818 2.106c-.025.058-.019.091.018.099.037.009.068-.008.093-.049.339-.578.684-1.068 1.034-1.468s.688-.704 1.009-.91c.322-.207.608-.31.855-.31.174 0 .324.06.453.18.128.12.21.281.247.483s-.002.436-.118.7l-1.14 2.701c-.124.297-.103.446.062.446.099 0 .221-.037.366-.111s.291-.163.44-.266.278-.198.39-.285c.111-.086.184-.146.217-.179.009-.008.015-.013.019-.013h.018c.025 0 .048.01.068.031s.031.048.031.08a.303.303 0 0 1-.049.173 5.715 5.715 0 0 1-.688.694c-.244.207-.495.37-.755.49-.261.12-.523.179-.787.179a.383.383 0 0 1-.223-.08c-.074-.054-.13-.122-.167-.204s-.035-.169.006-.26c.239-.554.48-1.104.724-1.654.244-.549.473-1.101.688-1.654.132-.338.178-.576.137-.712-.041-.137-.12-.209-.236-.217a.569.569 0 0 0-.321.093 2.44 2.44 0 0 0-.422.322 5.413 5.413 0 0 0-.508.551 6.61 6.61 0 0 0-.396.539 43.68 43.68 0 0 0-.557.842 41.122 41.122 0 0 0-1.265 2.076c-.074.132-.14.229-.198.291-.058.062-.12.093-.186.093ZM159.721 101.048a.422.422 0 0 1-.223-.08.802.802 0 0 1-.205-.186.323.323 0 0 1-.08-.192c0-.14.018-.261.055-.36s.077-.21.118-.334l1.177-3.308c.016-.057.01-.097-.019-.118a.18.18 0 0 0-.105-.031l-.495-.025c-.108-.008-.172-.031-.192-.068a.213.213 0 0 1-.031-.105c0-.016.02-.048.061-.093s.093-.091.156-.137a.338.338 0 0 1 .204-.068h.446c.091 0 .153-.015.186-.044s.07-.089.111-.18l.297-.607c.033-.066.095-.143.186-.229s.184-.163.279-.229.163-.099.205-.099c.066 0 .107.046.124.137s.008.178-.025.26l-.322.83c-.016.058-.01.095.019.111a.31.31 0 0 0 .143.025c.165 0 .334.013.508.037.173.025.314.045.421.062.132.025.213.051.242.08a.143.143 0 0 1 .043.105c0 .016-.016.043-.05.08-.033.037-.095.06-.186.068-.181.008-.355.019-.52.031-.165.013-.339.023-.52.031a.635.635 0 0 0-.278.062.227.227 0 0 0-.105.124l-1.103 3.048c-.033.099-.049.186-.049.261s.022.132.067.173c.046.041.114.062.205.062.116 0 .239-.041.372-.124s.26-.178.384-.285c.124-.107.227-.202.31-.285.091-.091.169-.132.235-.124.067.008.099.037.099.087a.388.388 0 0 1-.062.192c-.041.07-.095.143-.161.217a5.16 5.16 0 0 1-.862.737 4.235 4.235 0 0 1-.799.427.78.78 0 0 1-.26.062ZM163.487 101.048c-.14 0-.256-.045-.347-.136s-.137-.186-.137-.285c0-.033.003-.066.006-.099a.315.315 0 0 1 .031-.099 22.67 22.67 0 0 0 .856-1.939c.231-.607.437-1.138.619-1.592.033-.099.013-.149-.061-.149-.041 0-.122.023-.242.068s-.245.105-.378.18-.248.149-.347.223c-.041.033-.082.041-.124.025-.041-.016-.062-.045-.062-.087 0-.041.031-.101.093-.179s.149-.167.26-.267a4.64 4.64 0 0 1 .403-.316c.156-.111.328-.223.514-.334s.382-.213.589-.304a.219.219 0 0 1 .223.025.592.592 0 0 1 .18.186c.045.074.06.132.043.173l-1.512 3.581a.751.751 0 0 0-.086.359c0 .058.022.097.067.118a.312.312 0 0 0 .13.031c.116 0 .248-.056.397-.167s.308-.248.477-.409c.169-.161.332-.32.489-.477.016-.016.033-.025.049-.025s.033.006.05.019c.016.012.024.027.024.043 0 .132-.079.299-.235.502a4.156 4.156 0 0 1-.589.607 4.478 4.478 0 0 1-.725.514c-.247.14-.467.21-.657.21Zm2.503-6.529a.382.382 0 0 1-.309-.149.505.505 0 0 1-.124-.334c0-.198.066-.374.198-.527a.626.626 0 0 1 .495-.229c.132 0 .236.056.31.167s.111.233.111.366a.71.71 0 0 1-.199.49.63.63 0 0 1-.483.216ZM167.415 101.061a.827.827 0 0 1-.465-.167c-.161-.111-.297-.264-.409-.458s-.167-.419-.167-.675c.008-.298.058-.626.149-.985s.223-.716.397-1.072c.173-.355.39-.681.65-.979s.56-.535.899-.713a2.407 2.407 0 0 1 1.139-.266c.224 0 .392.039.508.118.116.079.174.172.174.279a.81.81 0 0 1-.118.403c-.079.137-.163.204-.254.204a.208.208 0 0 1-.168-.086 1.305 1.305 0 0 1-.13-.211 1.217 1.217 0 0 0-.186-.254c-.074-.078-.182-.118-.322-.118-.198 0-.404.12-.62.359-.214.24-.415.545-.601.917s-.337.764-.452 1.177a4.205 4.205 0 0 0-.174 1.127c0 .273.054.458.161.557a.615.615 0 0 0 .434.149c.264 0 .475-.051.632-.155.157-.103.314-.229.471-.378.058-.058.101-.099.13-.124a.172.172 0 0 1 .118-.037c.066 0 .099.054.099.161 0 .066-.051.165-.155.297a2.72 2.72 0 0 1-1.029.781 1.765 1.765 0 0 1-.712.149ZM170.512 101.048c-.181 0-.339-.051-.471-.155s-.198-.233-.198-.39c0-.19.043-.332.13-.427.087-.095.159-.143.217-.143s.118.023.18.068.13.101.205.167c.091.066.192.13.303.192s.258.093.44.093c.223 0 .4-.08.532-.242s.202-.332.211-.514c0-.181-.031-.378-.093-.589a2.986 2.986 0 0 0-.266-.626c-.107-.198-.196-.386-.266-.563s-.105-.328-.105-.452c0-.239.064-.465.192-.675.128-.211.285-.395.471-.551s.37-.279.551-.366.327-.13.434-.13.214.031.322.093c.107.062.195.132.266.21.07.079.105.147.105.204 0 .05-.025.11-.074.18-.05.07-.108.134-.174.192-.067.057-.124.086-.174.086-.041 0-.082-.02-.124-.062l-.137-.137a.893.893 0 0 0-.18-.136.548.548 0 0 0-.278-.062.453.453 0 0 0-.347.167.637.637 0 0 0-.149.44c0 .066.023.169.068.309.046.141.099.285.162.434.061.149.121.281.179.396.091.165.175.374.254.626.079.252.118.473.118.663 0 .248-.072.475-.216.681a2.078 2.078 0 0 1-.564.539 2.904 2.904 0 0 1-1.523.477ZM176.892 101.048a.622.622 0 0 1-.297-.08.746.746 0 0 1-.242-.204.432.432 0 0 1-.092-.26c0-.297.099-.642.297-1.034.198-.392.474-.805.83-1.239.355-.434.764-.853 1.227-1.258.446-.388.809-.679 1.09-.873s.487-.291.62-.291.248.058.347.174c.116.149.168.216.156.204-.013-.013-.015-.019-.007-.019a.06.06 0 0 0 .044-.019.147.147 0 0 0 .03-.056l.211-.36c.025-.041.025-.045 0-.013.049-.082.099-.124.149-.124.074 0 .149.012.223.037a.515.515 0 0 1 .18.099c.045.041.068.083.068.124s-.029.144-.086.31l-1.388 3.679c-.107.281-.054.421.161.421.149 0 .328-.072.539-.217a2.37 2.37 0 0 0 .551-.526.342.342 0 0 1 .055-.044.12.12 0 0 1 .056-.019c.033 0 .055.011.068.031a.224.224 0 0 1 .018.105c0 .058-.058.172-.173.34a3.108 3.108 0 0 1-.36.44c-.232.215-.465.38-.7.496a1.5 1.5 0 0 1-.651.173.486.486 0 0 1-.248-.074c-.082-.049-.15-.111-.204-.186s-.08-.149-.08-.223a.63.63 0 0 1 .074-.285c-.034.074-.035.074-.006 0a21.255 21.255 0 0 1 .378-.843c.082-.173.153-.326.211-.458.041-.091.06-.159.055-.204s-.031-.039-.08.019a19.997 19.997 0 0 1-1.295 1.338c-.36.33-.676.566-.948.706s-.532.21-.78.21Zm.694-.78c.181 0 .452-.15.811-.452.359-.302.766-.721 1.22-1.258.314-.363.562-.698.743-1.003s.272-.533.272-.681c0-.066-.054-.144-.161-.235a.672.672 0 0 0-.161-.099.389.389 0 0 0-.149-.037c-.149 0-.353.074-.614.223s-.498.326-.712.533a7.53 7.53 0 0 0-.781.892c-.247.331-.448.649-.601.954s-.229.554-.229.743c0 .124.033.225.099.304a.321.321 0 0 0 .26.118ZM183.074 101.074a.223.223 0 0 1-.142-.056.535.535 0 0 1-.185-.316.265.265 0 0 1 .018-.174l1.437-3.519c.149-.363.156-.545.025-.545-.083 0-.169.01-.26.031a.796.796 0 0 0-.297.155c-.108.083-.227.21-.36.384-.034.033-.068.048-.105.043-.037-.004-.064-.035-.08-.093 0-.05.014-.114.043-.192a2.415 2.415 0 0 1 .216-.427c.124-.19.291-.338.501-.446.211-.107.456-.165.737-.173a.47.47 0 0 1 .248.068c.074.046.13.11.168.192s.035.173-.006.273l-.818 2.106c-.024.058-.018.091.019.099.037.009.068-.008.092-.049a9.628 9.628 0 0 1 1.034-1.468c.352-.401.688-.704 1.01-.91s.607-.31.855-.31c.174 0 .324.06.452.18s.211.281.248.483-.003.436-.118.7l-1.14 2.701c-.124.297-.104.446.062.446.099 0 .22-.037.365-.111.145-.074.291-.163.44-.266s.279-.198.391-.285c.111-.086.184-.146.217-.179.008-.008.014-.013.018-.013h.019c.025 0 .048.01.068.031.02.021.031.048.031.08a.303.303 0 0 1-.05.173 5.708 5.708 0 0 1-.687.694c-.244.207-.496.37-.756.49s-.523.179-.786.179a.383.383 0 0 1-.223-.08c-.074-.054-.13-.122-.168-.204s-.035-.169.006-.26c.239-.554.481-1.104.725-1.654.244-.549.473-1.101.688-1.654.131-.338.177-.576.136-.712-.041-.137-.119-.209-.235-.217a.574.574 0 0 0-.322.093 2.4 2.4 0 0 0-.421.322 6.571 6.571 0 0 0-.905 1.09 51.023 51.023 0 0 0-1.195 1.858c-.22.36-.428.713-.626 1.06a1.548 1.548 0 0 1-.199.291c-.058.062-.119.093-.186.093ZM189.814 101.048a.748.748 0 0 1-.582-.248c-.149-.165-.223-.38-.223-.644 0-.314.068-.665.205-1.053a6.68 6.68 0 0 1 .557-1.177c.235-.396.502-.764.799-1.103.322-.363.648-.646.978-.849.33-.202.628-.303.893-.303.107 0 .194.014.26.043.066.029.214.118.446.267l.291.179c.02.013.022.019.006.019.024 0 .045-.029.061-.086l.831-2.788a.747.747 0 0 0 .031-.118.304.304 0 0 1 .012-.062.124.124 0 0 0 .006-.037v-.031a.306.306 0 0 0-.074-.217.721.721 0 0 0-.272-.155c-.181-.066-.29-.105-.322-.118-.033-.012-.049-.031-.049-.056 0-.057.033-.103.099-.136.067-.033.174-.062.322-.087.124-.016.25-.035.378-.056.129-.02.246-.037.353-.049a20.125 20.125 0 0 1 .421-.044c.099 0 .149.058.149.174a.662.662 0 0 1-.012.13 1.77 1.77 0 0 1-.037.155l-2.007 6.95c-.017.066-.031.13-.043.192a.933.933 0 0 0-.019.192c0 .182.058.273.174.273a.852.852 0 0 0 .384-.118 2.65 2.65 0 0 0 .831-.737c.016-.025.033-.041.049-.049s.033-.013.049-.013c.067 0 .091.033.074.099 0 .091-.045.207-.136.347-.092.14-.211.287-.36.44a4.6 4.6 0 0 1-.477.427 3.3 3.3 0 0 1-.489.322.894.894 0 0 1-.397.124.473.473 0 0 1-.26-.08.674.674 0 0 1-.205-.21.497.497 0 0 1-.08-.267c0-.041.016-.149.05-.322.016-.091.041-.204.074-.341.033-.136.063-.268.092-.396l.062-.279a.851.851 0 0 0-.006.025c.016-.066.014-.114-.007-.143s-.043-.022-.067.019c-.57.719-1.07 1.231-1.499 1.537-.43.305-.868.458-1.314.458Zm.459-.582c.223 0 .467-.081.731-.242.264-.161.526-.376.786-.644s.5-.564.718-.886a5.27 5.27 0 0 0 .527-.967c.131-.322.198-.619.198-.892 0-.239-.054-.427-.161-.564a.551.551 0 0 0-.459-.204c-.19 0-.404.091-.644.273-.24.182-.483.421-.731.719s-.477.622-.688.973c-.21.351-.379.7-.508 1.047-.128.347-.192.652-.192.916 0 .182.031.306.093.372.061.067.171.099.328.099ZM199.75 100.974c-.321 0-.578-.093-.767-.279-.19-.186-.285-.431-.285-.737 0-.206.025-.44.074-.7s.119-.526.211-.799l1.561-4.72a2.062 2.062 0 0 0 .123-.669c0-.041-.022-.079-.068-.111a.814.814 0 0 0-.241-.099c-.256-.066-.385-.128-.385-.186 0-.041.015-.074.044-.099a.463.463 0 0 1 .155-.074 14.12 14.12 0 0 1 .793-.248c.149-.041.283-.074.403-.099a1.51 1.51 0 0 1 .23-.037c.131 0 .198.041.198.124a.83.83 0 0 1-.019.192 2.06 2.06 0 0 1-.067.217c-.067.165-.157.411-.273.737s-.241.69-.378 1.09l-.415 1.214c-.141.409-.271.791-.391 1.146-.12.355-.213.64-.279.855-.033.083-.03.132.007.149.037.017.085-.012.143-.086.487-.644.949-1.14 1.387-1.487s.81-.52 1.115-.52a.888.888 0 0 1 .917.917c0 .38-.076.77-.229 1.171s-.36.789-.62 1.165-.556.713-.886 1.01-.671.533-1.021.706c-.352.174-.697.26-1.035.26Zm.322-.396c.107 0 .248-.058.422-.174.173-.115.361-.274.563-.477a6.388 6.388 0 0 0 1.134-1.561 6.06 6.06 0 0 0 .39-.917c.095-.293.143-.539.143-.737a.58.58 0 0 0-.105-.353c-.07-.095-.155-.143-.254-.143-.256 0-.549.145-.88.434-.33.289-.714.731-1.152 1.326-.272.38-.491.731-.657 1.053-.165.322-.247.562-.247.719 0 .223.064.417.192.582.128.165.278.248.452.248ZM205.065 101.061a.881.881 0 0 1-.526-.198 1.607 1.607 0 0 1-.44-.502 1.18 1.18 0 0 1-.174-.589c0-.413.085-.853.254-1.319s.403-.904.7-1.314c.297-.409.642-.743 1.034-1.003s.807-.39 1.245-.39c.29 0 .514.06.675.18.162.12.242.287.242.502 0 .256-.08.479-.242.669-.161.19-.378.353-.65.49-.273.136-.576.25-.911.34-.334.091-.675.169-1.022.235a.566.566 0 0 0-.118.031c-.029.012-.052.043-.068.093-.058.181-.116.38-.173.595a2.333 2.333 0 0 0-.087.607c0 .289.056.512.168.669s.274.235.489.235c.297 0 .55-.074.756-.223.206-.149.375-.297.507-.446.083-.091.157-.137.223-.137.083 0 .124.041.124.124v.043a.08.08 0 0 1-.025.056 3.028 3.028 0 0 1-.557.688 2.255 2.255 0 0 1-.663.421 2.014 2.014 0 0 1-.762.143Zm.273-3.184c.091 0 .245-.026.464-.08.219-.054.449-.14.688-.26s.444-.268.614-.446a.894.894 0 0 0 .254-.638c0-.107-.029-.2-.087-.279a.29.29 0 0 0-.248-.118c-.173 0-.361.072-.563.216a3.572 3.572 0 0 0-.576.521 4.392 4.392 0 0 0-.453.588c-.119.19-.18.331-.18.421 0 .05.029.074.087.074ZM208.658 101.048a.622.622 0 0 1-.297-.08.746.746 0 0 1-.242-.204.432.432 0 0 1-.092-.26c0-.297.099-.642.297-1.034.198-.392.474-.805.83-1.239.355-.434.764-.853 1.227-1.258.446-.388.809-.679 1.09-.873s.487-.291.62-.291.248.058.347.174c.116.149.168.216.156.204-.013-.013-.015-.019-.007-.019a.06.06 0 0 0 .044-.019.147.147 0 0 0 .03-.056l.211-.36c.025-.041.025-.045 0-.013.049-.082.099-.124.149-.124.074 0 .149.012.223.037a.515.515 0 0 1 .18.099c.045.041.068.083.068.124s-.029.144-.086.31l-1.388 3.679c-.107.281-.054.421.161.421.149 0 .328-.072.539-.217a2.37 2.37 0 0 0 .551-.526.342.342 0 0 1 .055-.044.12.12 0 0 1 .056-.019c.033 0 .055.011.068.031a.224.224 0 0 1 .018.105c0 .058-.058.172-.173.34a3.108 3.108 0 0 1-.36.44c-.232.215-.465.38-.7.496a1.5 1.5 0 0 1-.651.173.486.486 0 0 1-.248-.074c-.082-.049-.15-.111-.204-.186s-.08-.149-.08-.223a.63.63 0 0 1 .074-.285c-.034.074-.035.074-.006 0a21.255 21.255 0 0 1 .378-.843c.082-.173.153-.326.211-.458.041-.091.06-.159.055-.204s-.031-.039-.08.019a19.997 19.997 0 0 1-1.295 1.338c-.36.33-.676.566-.948.706s-.532.21-.78.21Zm.694-.78c.181 0 .452-.15.811-.452.359-.302.766-.721 1.22-1.258.314-.363.562-.698.743-1.003s.272-.533.272-.681c0-.066-.054-.144-.161-.235a.672.672 0 0 0-.161-.099.389.389 0 0 0-.149-.037c-.149 0-.353.074-.614.223s-.498.326-.712.533a7.53 7.53 0 0 0-.781.892c-.247.331-.448.649-.601.954s-.229.554-.229.743c0 .124.033.225.099.304a.321.321 0 0 0 .26.118ZM214.951 101.048a.436.436 0 0 1-.278-.118.771.771 0 0 1-.217-.279c-.05-.107-.062-.194-.037-.26l1.301-3.134c.058-.14.095-.26.111-.36.016-.099-.009-.149-.074-.149-.041 0-.11.033-.204.099a4.765 4.765 0 0 0-.322.248c-.12.099-.242.203-.366.31-.016.016-.048.021-.093.013-.045-.008-.067-.025-.067-.05 0-.033.008-.081.024-.143s.058-.138.124-.229c.206-.281.436-.516.687-.706.252-.19.492-.336.719-.439.226-.103.398-.155.514-.155.041 0 .088.023.143.068a.533.533 0 0 1 .13.161.174.174 0 0 1 0 .179c-.272.562-.532 1.132-.78 1.71s-.496 1.148-.743 1.71c-.074.165-.12.318-.137.458s.016.21.099.21c.082 0 .206-.07.372-.21.165-.14.353-.322.563-.545s.431-.462.663-.719c.314-.355.617-.722.911-1.103.293-.38.547-.722.761-1.028a7.63 7.63 0 0 0 .422-.644c.041-.083.091-.137.149-.161a.406.406 0 0 1 .161-.037c.05 0 .099.025.149.074a.56.56 0 0 1 .118.173c.029.066.031.124.007.174l-1.586 3.642c-.067.157-.095.277-.087.36.009.083.05.124.124.124.107 0 .247-.057.421-.173a7.547 7.547 0 0 0 .991-.818.052.052 0 0 1 .037-.013c.025 0 .049.01.074.031s.037.048.037.08a.115.115 0 0 1-.012.05l-.031.062a1.13 1.13 0 0 1-.124.192 3.821 3.821 0 0 1-.105.13c-.157.198-.339.39-.545.576s-.428.339-.663.458c-.236.12-.486.179-.75.179-.107 0-.204-.07-.29-.21-.087-.14-.105-.264-.056-.372.116-.248.239-.512.372-.793s.25-.541.353-.781c.103-.239.175-.417.217-.532.041-.099.037-.153-.013-.161-.049-.008-.095.013-.136.062-.43.471-.81.882-1.14 1.233-.331.351-.618.64-.862.867-.244.227-.45.399-.619.514-.169.115-.309.173-.416.173ZM221.345 101.048a.422.422 0 0 1-.223-.08.802.802 0 0 1-.205-.186.323.323 0 0 1-.08-.192c0-.14.018-.261.055-.36s.077-.21.118-.334l1.177-3.308c.016-.057.01-.097-.019-.118a.18.18 0 0 0-.105-.031l-.495-.025c-.108-.008-.172-.031-.192-.068a.213.213 0 0 1-.031-.105c0-.016.02-.048.061-.093s.093-.091.156-.137a.338.338 0 0 1 .204-.068h.446c.091 0 .153-.015.186-.044s.07-.089.111-.18l.297-.607c.033-.066.095-.143.186-.229s.184-.163.279-.229.163-.099.205-.099c.066 0 .107.046.124.137s.008.178-.025.26l-.322.83c-.016.058-.01.095.019.111a.31.31 0 0 0 .143.025c.165 0 .334.013.508.037.173.025.314.045.421.062.132.025.213.051.242.08a.143.143 0 0 1 .043.105c0 .016-.016.043-.05.08-.033.037-.095.06-.186.068-.181.008-.355.019-.52.031-.165.013-.339.023-.52.031a.635.635 0 0 0-.278.062.227.227 0 0 0-.105.124l-1.103 3.048c-.033.099-.049.186-.049.261s.022.132.067.173c.046.041.114.062.205.062.116 0 .239-.041.372-.124s.26-.178.384-.285c.124-.107.227-.202.31-.285.091-.091.169-.132.235-.124.067.008.099.037.099.087a.388.388 0 0 1-.062.192c-.041.07-.095.143-.161.217a5.16 5.16 0 0 1-.862.737 4.235 4.235 0 0 1-.799.427.78.78 0 0 1-.26.062ZM225.111 101.048a.469.469 0 0 1-.347-.136c-.092-.091-.137-.186-.137-.285 0-.033.002-.066.006-.099a.315.315 0 0 1 .031-.099c.339-.686.623-1.332.855-1.939.231-.607.437-1.138.62-1.592.033-.099.012-.149-.062-.149a.885.885 0 0 0-.241.068 3.33 3.33 0 0 0-.726.403c-.041.033-.083.041-.124.025-.041-.016-.062-.045-.062-.087 0-.041.031-.101.092-.179.062-.079.149-.167.26-.267.111-.099.246-.204.403-.316.157-.111.328-.223.514-.334s.382-.213.589-.304a.219.219 0 0 1 .223.025.581.581 0 0 1 .18.186c.046.074.06.132.043.173l-1.512 3.581a.821.821 0 0 0-.086.359c0 .058.022.097.068.118a.305.305 0 0 0 .13.031c.116 0 .248-.056.397-.167s.308-.248.477-.409.333-.32.489-.477c.016-.016.033-.025.05-.025.016 0 .033.006.049.019.016.012.025.027.025.043 0 .132-.079.299-.236.502a4.105 4.105 0 0 1-.589.607 4.515 4.515 0 0 1-.724.514c-.248.14-.467.21-.657.21Zm2.503-6.529a.386.386 0 0 1-.31-.149.51.51 0 0 1-.124-.334c0-.198.066-.374.198-.527a.627.627 0 0 1 .496-.229c.132 0 .235.056.309.167s.111.233.111.366a.709.709 0 0 1-.198.49.63.63 0 0 1-.483.216ZM226.684 104.468c-.305 0-.553-.052-.743-.155a.5.5 0 0 1-.284-.465c0-.124.06-.242.179-.353.12-.111.221-.167.304-.167.066 0 .128.035.186.105.058.07.128.15.21.242a.994.994 0 0 0 .267.21.76.76 0 0 0 .378.087.642.642 0 0 0 .409-.136c.116-.091.229-.256.34-.496.111-.24.233-.587.366-1.041l1.66-5.625c.05-.149-.008-.223-.174-.223l-.767.013c-.058 0-.099-.014-.124-.044a.16.16 0 0 1-.037-.105c0-.066.025-.134.074-.204.05-.07.104-.11.162-.118l.867-.049c.116-.017.194-.099.236-.248l.099-.396c.199-.785.465-1.408.799-1.871.334-.462.685-.795 1.053-.997.368-.202.697-.303.985-.303.364 0 .648.08.855.242.207.161.31.369.31.626 0 .207-.056.363-.168.471-.111.108-.225.161-.34.161-.058 0-.111-.048-.161-.143-.05-.095-.108-.208-.174-.34-.074-.165-.169-.291-.285-.378s-.264-.13-.446-.13c-.232 0-.428.054-.589.161s-.308.305-.44.595-.281.706-.446 1.251c-.049.157-.092.308-.13.452a13.775 13.775 0 0 1-.173.601.323.323 0 0 0-.019.111c0 .041.013.07.037.087a.158.158 0 0 0 .087.025c.247 0 .485-.006.712-.019.227-.012.444-.019.651-.019.057 0 .086.045.086.137a.48.48 0 0 1-.167.291.287.287 0 0 1-.193.068l-1.127.013c-.083 0-.151.014-.205.043s-.089.08-.105.155c-.289.934-.57 1.875-.843 2.825-.272.95-.528 1.891-.767 2.825-.083.33-.221.632-.416.904a3.576 3.576 0 0 1-1.375 1.164c-.235.107-.44.161-.614.161ZM232.99 101.048a.436.436 0 0 1-.278-.118.771.771 0 0 1-.217-.279c-.05-.107-.062-.194-.037-.26l1.301-3.134c.058-.14.095-.26.111-.36.016-.099-.009-.149-.074-.149-.041 0-.11.033-.204.099a4.765 4.765 0 0 0-.322.248c-.12.099-.242.203-.366.31-.016.016-.048.021-.093.013-.045-.008-.067-.025-.067-.05 0-.033.008-.081.024-.143s.058-.138.124-.229c.206-.281.436-.516.687-.706.252-.19.492-.336.719-.439.226-.103.398-.155.514-.155.041 0 .088.023.143.068a.533.533 0 0 1 .13.161.174.174 0 0 1 0 .179c-.272.562-.532 1.132-.78 1.71s-.496 1.148-.743 1.71c-.074.165-.12.318-.137.458s.016.21.099.21c.082 0 .206-.07.372-.21.165-.14.353-.322.563-.545s.431-.462.663-.719c.314-.355.617-.722.911-1.103.293-.38.547-.722.761-1.028a7.63 7.63 0 0 0 .422-.644c.041-.083.091-.137.149-.161a.406.406 0 0 1 .161-.037c.05 0 .099.025.149.074a.56.56 0 0 1 .118.173c.029.066.031.124.007.174l-1.586 3.642c-.067.157-.095.277-.087.36.009.083.05.124.124.124.107 0 .247-.057.421-.173a7.547 7.547 0 0 0 .991-.818.052.052 0 0 1 .037-.013c.025 0 .049.01.074.031s.037.048.037.08a.115.115 0 0 1-.012.05l-.031.062a1.13 1.13 0 0 1-.124.192 3.821 3.821 0 0 1-.105.13c-.157.198-.339.39-.545.576s-.428.339-.663.458c-.236.12-.486.179-.75.179-.107 0-.204-.07-.29-.21-.087-.14-.105-.264-.056-.372.116-.248.239-.512.372-.793s.25-.541.353-.781c.103-.239.175-.417.217-.532.041-.099.037-.153-.013-.161-.049-.008-.095.013-.136.062-.43.471-.81.882-1.14 1.233-.331.351-.618.64-.862.867-.244.227-.45.399-.619.514-.169.115-.309.173-.416.173ZM238.975 101.048c-.108 0-.227-.058-.36-.173s-.199-.239-.199-.372c0-.05.009-.099.025-.149l2.354-6.703c.041-.115.073-.227.092-.334.021-.107.031-.215.031-.322 0-.074-.039-.145-.118-.211s-.175-.111-.291-.136c-.082-.016-.149-.039-.198-.068s-.074-.06-.074-.093c0-.025.002-.045.006-.062s.012-.033.025-.05c.012-.016.027-.025.043-.025.156-.041.347-.081.57-.118s.432-.07.626-.099c.194-.029.324-.043.391-.043.041 0 .076.014.105.043.029.029.043.076.043.143a.683.683 0 0 1-.025.167l-.049.179-2.503 7.137a.847.847 0 0 0-.049.192 1.171 1.171 0 0 0-.013.167c0 .132.041.198.124.198.115 0 .258-.064.427-.192a3.69 3.69 0 0 0 .502-.465c.165-.181.297-.343.397-.483.049-.066.107-.13.173-.192.067-.062.116-.093.149-.093s.052.015.056.044.006.068.006.118a.992.992 0 0 1-.167.52 2.817 2.817 0 0 1-.44.539c-.182.178-.376.337-.582.477s-.405.252-.595.334c-.19.083-.352.124-.483.124ZM244.871 101.048c-.181 0-.338-.051-.47-.155s-.199-.233-.199-.39c0-.19.044-.332.13-.427s.159-.143.217-.143.118.023.18.068c.061.045.13.101.204.167.091.066.192.13.303.192s.258.093.44.093c.223 0 .401-.08.533-.242s.202-.332.21-.514c0-.181-.03-.378-.092-.589a3.095 3.095 0 0 0-.266-.626 5.086 5.086 0 0 1-.266-.563 1.256 1.256 0 0 1-.105-.452c0-.239.064-.465.192-.675.128-.211.285-.395.471-.551s.369-.279.551-.366c.181-.087.326-.13.433-.13s.215.031.322.093c.107.062.196.132.266.21.07.079.105.147.105.204 0 .05-.025.11-.074.18a1.05 1.05 0 0 1-.174.192c-.066.057-.124.086-.173.086-.041 0-.083-.02-.124-.062l-.136-.137a.922.922 0 0 0-.18-.136.55.55 0 0 0-.279-.062c-.132 0-.247.056-.347.167s-.149.258-.149.44c0 .066.022.169.068.309a6.031 6.031 0 0 0 .341.83c.091.165.175.374.254.626.079.252.118.473.118.663 0 .248-.073.475-.217.681a2.074 2.074 0 0 1-.563.539 2.91 2.91 0 0 1-1.524.477ZM249.021 101.086c-.041 0-.078-.021-.111-.062-.033-.041-.06-.091-.08-.149s-.031-.111-.031-.161c0-.041.027-.14.081-.297.054-.157.121-.351.204-.582l1.14-2.986c.041-.108.041-.198 0-.273s-.111-.111-.211-.111a1.01 1.01 0 0 0-.39.086c-.137.058-.303.219-.502.484-.033.033-.068.048-.105.043-.037-.004-.064-.035-.08-.093a1.161 1.161 0 0 1 .21-.62c.14-.173.309-.318.508-.433.198-.116.437-.178.718-.186.116 0 .229.019.34.056s.194.105.248.204.048.235-.018.409l-.707 1.834c-.024.057-.018.091.019.099s.068-.008.092-.05c.355-.545.696-1.008 1.022-1.387s.64-.669.942-.867c.301-.198.584-.297.849-.297.156 0 .299.045.427.136a.677.677 0 0 1 .26.403c.046.178.023.398-.068.663l-.446 1.301c-.024.057-.018.091.019.099s.068-.008.092-.05a9.883 9.883 0 0 1 1.022-1.419c.334-.375.659-.659.972-.849.315-.19.603-.285.868-.285.156 0 .297.049.421.149.124.099.205.246.242.44s-.002.436-.118.725l-1.066 2.75c-.124.297-.104.446.062.446.099 0 .219-.045.359-.136a3.99 3.99 0 0 0 .428-.322 10.103 10.103 0 0 0 .589-.545c.008-.008.014-.013.018-.013h.019c.025 0 .048.01.068.031.02.021.031.048.031.08a.528.528 0 0 1-.044.204.801.801 0 0 1-.179.242c-.273.305-.579.59-.917.855-.339.264-.703.396-1.091.396a.339.339 0 0 1-.204-.08.512.512 0 0 1-.162-.217.368.368 0 0 1-.006-.273l1.437-3.704c.066-.165.064-.289-.006-.372a.357.357 0 0 0-.242-.136c-.132-.008-.309.06-.532.204-.223.145-.471.386-.743.725-.124.157-.296.393-.514.706-.22.314-.442.65-.669 1.009-.227.36-.423.692-.589.998a5.98 5.98 0 0 1-.397.656 2.316 2.316 0 0 1-.334.39c-.099.087-.182.13-.248.13-.041 0-.079-.019-.111-.056a.459.459 0 0 1-.111-.279c0-.041.027-.146.08-.316.054-.169.122-.369.205-.601l1.152-3.097c.074-.19.066-.32-.025-.391a.543.543 0 0 0-.223-.118c-.132-.016-.309.052-.532.204-.223.153-.471.399-.743.737-.099.116-.223.281-.372.496s-.309.452-.477.713a28.657 28.657 0 0 0-.923 1.53c-.215.396-.38.692-.496.886s-.223.291-.322.291ZM258.809 101.048a.469.469 0 0 1-.347-.136c-.092-.091-.137-.186-.137-.285 0-.033.002-.066.006-.099a.315.315 0 0 1 .031-.099c.339-.686.623-1.332.855-1.939.231-.607.437-1.138.62-1.592.033-.099.012-.149-.062-.149a.885.885 0 0 0-.241.068 3.33 3.33 0 0 0-.726.403c-.041.033-.083.041-.124.025-.041-.016-.062-.045-.062-.087 0-.041.031-.101.092-.179.062-.079.149-.167.26-.267.111-.099.246-.204.403-.316.157-.111.328-.223.514-.334s.382-.213.589-.304a.219.219 0 0 1 .223.025.581.581 0 0 1 .18.186c.046.074.06.132.043.173l-1.512 3.581a.821.821 0 0 0-.086.359c0 .058.022.097.068.118a.305.305 0 0 0 .13.031c.116 0 .248-.056.397-.167s.308-.248.477-.409.333-.32.489-.477c.016-.016.033-.025.05-.025.016 0 .033.006.049.019.016.012.025.027.025.043 0 .132-.079.299-.236.502a4.105 4.105 0 0 1-.589.607 4.515 4.515 0 0 1-.724.514c-.248.14-.467.21-.657.21Zm2.503-6.529a.386.386 0 0 1-.31-.149.51.51 0 0 1-.124-.334c0-.198.066-.374.198-.527a.627.627 0 0 1 .496-.229c.132 0 .235.056.309.167s.111.233.111.366a.709.709 0 0 1-.198.49.63.63 0 0 1-.483.216ZM262.141 101.048c-.107 0-.227-.058-.36-.173s-.198-.239-.198-.372c0-.05.008-.099.025-.149l2.353-6.703c.041-.115.073-.227.093-.334.021-.107.031-.215.031-.322 0-.074-.04-.145-.118-.211a.666.666 0 0 0-.291-.136.64.64 0 0 1-.199-.068c-.049-.029-.074-.06-.074-.093 0-.025.003-.045.007-.062a.134.134 0 0 1 .024-.05c.013-.016.027-.025.043-.025.157-.041.347-.081.57-.118s.431-.07.626-.099c.194-.029.324-.043.39-.043.041 0 .077.014.105.043.029.029.043.076.043.143a.678.678 0 0 1-.024.167l-.05.179-2.502 7.137a.908.908 0 0 0-.05.192 1.322 1.322 0 0 0-.012.167c0 .132.041.198.124.198.116 0 .258-.064.428-.192.169-.128.336-.283.501-.465.165-.181.297-.343.397-.483.049-.066.107-.13.174-.192.066-.062.116-.093.149-.093s.051.015.055.044.007.068.007.118a.994.994 0 0 1-.168.52c-.111.182-.258.362-.44.539s-.376.337-.582.477-.404.252-.595.334-.351.124-.483.124ZM266.428 101.061a.881.881 0 0 1-.526-.198 1.607 1.607 0 0 1-.44-.502 1.18 1.18 0 0 1-.174-.589c0-.413.085-.853.254-1.319s.403-.904.7-1.314c.297-.409.642-.743 1.034-1.003s.807-.39 1.245-.39c.29 0 .514.06.675.18.162.12.242.287.242.502 0 .256-.08.479-.242.669-.161.19-.378.353-.65.49-.273.136-.576.25-.911.34-.334.091-.675.169-1.022.235a.566.566 0 0 0-.118.031c-.029.012-.052.043-.068.093-.058.181-.116.38-.173.595a2.333 2.333 0 0 0-.087.607c0 .289.056.512.168.669s.274.235.489.235c.297 0 .55-.074.756-.223.206-.149.375-.297.507-.446.083-.091.157-.137.223-.137.083 0 .124.041.124.124v.043a.08.08 0 0 1-.025.056 3.028 3.028 0 0 1-.557.688 2.255 2.255 0 0 1-.663.421 2.014 2.014 0 0 1-.762.143Zm.273-3.184c.091 0 .245-.026.464-.08.219-.054.449-.14.688-.26s.444-.268.614-.446a.894.894 0 0 0 .254-.638c0-.107-.029-.2-.087-.279a.29.29 0 0 0-.248-.118c-.173 0-.361.072-.563.216a3.572 3.572 0 0 0-.576.521 4.392 4.392 0 0 0-.453.588c-.119.19-.18.331-.18.421 0 .05.029.074.087.074ZM269.785 101.048c-.181 0-.338-.051-.47-.155s-.199-.233-.199-.39c0-.19.044-.332.13-.427s.159-.143.217-.143.118.023.18.068c.061.045.13.101.204.167.091.066.192.13.303.192s.258.093.44.093c.223 0 .401-.08.533-.242s.202-.332.21-.514c0-.181-.03-.378-.092-.589a3.095 3.095 0 0 0-.266-.626 5.086 5.086 0 0 1-.266-.563 1.256 1.256 0 0 1-.105-.452c0-.239.064-.465.192-.675.128-.211.285-.395.471-.551s.369-.279.551-.366c.181-.087.326-.13.433-.13s.215.031.322.093c.107.062.196.132.266.21.07.079.105.147.105.204 0 .05-.025.11-.074.18a1.05 1.05 0 0 1-.174.192c-.066.057-.124.086-.173.086-.041 0-.083-.02-.124-.062l-.136-.137a.922.922 0 0 0-.18-.136.55.55 0 0 0-.279-.062c-.132 0-.247.056-.347.167s-.149.258-.149.44c0 .066.022.169.068.309a6.031 6.031 0 0 0 .341.83c.091.165.175.374.254.626.079.252.118.473.118.663 0 .248-.073.475-.217.681a2.074 2.074 0 0 1-.563.539 2.91 2.91 0 0 1-1.524.477Z" class="cls-2"/></g></g></g></svg>